<?xml version="1.0" encoding="utf-8"?>
<!-- Generator: Adobe Illustrator 21.0.2, SVG Export Plug-In . SVG Version: 6.00 Build 0)  -->
<svg version="1.1" id="Layer_1" xmlns="http://www.w3.org/2000/svg" xmlns:xlink="http://www.w3.org/1999/xlink" x="0px" y="0px"
	 viewBox="0 0 114 114" style="enable-background:new 0 0 114 114;" xml:space="preserve">
<style type="text/css">
	.st0{fill:#FFD740;}
	.st1{fill:#FFE57F;}
	.st2{fill:#FFC400;}
	.st3{fill:#FFFFFF;}
	.st4{fill:#FDD835;}
	.st5{fill:#FFAB00;}
	.st6{opacity:0.1;fill:#37474F;enable-background:new    ;}
	.st7{fill:#F4D0A1;}
	.st8{fill:#EDBC7C;}
	.st9{fill:#F6D9B4;}
	.st10{fill:#CFD8DC;}
	.st11{fill:#B0BEC5;}
	.st12{fill:#546E7A;}
	.st13{fill:#455A64;}
</style>
<g id="loan_money_1_">
	<g>
		<g>
			<rect x="48.9" y="74.1" class="st0" width="31.9" height="6.4"/>
			<rect x="48.9" y="74.1" class="st1" width="14.3" height="6.4"/>
			<rect x="48.9" y="78.8" class="st2" width="31.9" height="1.6"/>
			<rect x="50.5" y="74.1" class="st3" width="1.6" height="4.8"/>
			<rect x="69.7" y="74.1" class="st2" width="1.6" height="4.8"/>
			<rect x="72.8" y="74.1" class="st2" width="1.6" height="4.8"/>
			<rect x="76" y="74.1" class="st2" width="1.6" height="4.8"/>
			<rect x="79.2" y="74.1" class="st2" width="1.6" height="4.8"/>
		</g>
		<g>
			<rect x="47.3" y="67.7" class="st0" width="31.9" height="6.4"/>
			<rect x="47.3" y="67.7" class="st1" width="14.3" height="6.4"/>
			<rect x="47.3" y="72.5" class="st2" width="31.9" height="1.6"/>
			<rect x="48.9" y="67.7" class="st3" width="1.6" height="4.8"/>
			<rect x="68.1" y="67.7" class="st2" width="1.6" height="4.8"/>
			<rect x="71.2" y="67.7" class="st2" width="1.6" height="4.8"/>
			<rect x="74.4" y="67.7" class="st2" width="1.6" height="4.8"/>
			<rect x="77.6" y="67.7" class="st2" width="1.6" height="4.8"/>
		</g>
		<g>
			<g>
				<path class="st0" d="M54.1,43.3c-5.9-5.9-5.9-15.5,0-21.4c5.9-5.9,15.5-5.9,21.4,0c5.9,5.9,5.9,15.5,0,21.4S60,49.2,54.1,43.3z"
					/>
				<path class="st4" d="M64.9,18.3c7.9,0,14.3,6.4,14.3,14.3S72.8,47,64.9,47s-14.3-6.4-14.3-14.3S57,18.3,64.9,18.3 M64.9,16.7
					c-8.8,0-15.9,7.1-15.9,15.9s7.1,15.9,15.9,15.9c8.8,0,15.9-7.1,15.9-15.9S73.7,16.7,64.9,16.7L64.9,16.7z"/>
			</g>
			<path class="st3" d="M52.4,41.1c-2.5-5.8-1.4-12.8,3.3-17.5c5-5,12.5-6,18.4-2.9c0-0.2,0-0.3,0-0.5c-6.1-3.8-14.3-3-19.6,2.3
				c-5.1,5.1-6,12.7-2.8,18.7C52,41.1,52.2,41.1,52.4,41.1z"/>
			<g>
				<path class="st1" d="M64.9,44.6c-6.6,0-12-5.4-12-12s5.4-12,12-12s12,5.4,12,12S71.5,44.6,64.9,44.6z"/>
				<path class="st2" d="M64.9,21.4c6.2,0,11.2,5,11.2,11.2s-5,11.2-11.2,11.2c-6.2,0-11.2-5-11.2-11.2S58.7,21.4,64.9,21.4
					 M64.9,19.9c-7,0-12.8,5.7-12.8,12.8s5.7,12.8,12.8,12.8c7,0,12.8-5.7,12.8-12.8S71.9,19.9,64.9,19.9L64.9,19.9z"/>
			</g>
			<g>
				<path class="st5" d="M64.9,27.8c1.1,0,1.6,0.8,1.6,1.6h3.2c0-1.3-1.1-2.6-3.2-3v-1.8h-3.2v1.7c-2.1,0.4-3.2,1.6-3.2,3.8
					c0,2.1,1.6,4,4.8,4c0.9,0,1.6,0.7,1.6,1.6c0,0.9-0.5,1.6-1.6,1.6c-1.1,0-1.6-0.6-1.6-1.6h-3.2c0,2,1.1,2.8,3.2,3.1v1.7h3.2v-1.7
					c2.1-0.3,3.2-1.4,3.2-3.9c0-2.2-1.6-4-4.8-4c-0.9,0-1.6-0.5-1.6-1.6C63.3,28.6,63.7,27.8,64.9,27.8z"/>
			</g>
			<path class="st2" d="M64.9,18.3c7.9,0,14.3,6.4,14.3,14.3S72.8,47,64.9,47s-14.3-6.4-14.3-14.3S57,18.3,64.9,18.3 M64.9,16.7
				c-8.8,0-15.9,7.1-15.9,15.9s7.1,15.9,15.9,15.9c8.8,0,15.9-7.1,15.9-15.9S73.7,16.7,64.9,16.7L64.9,16.7z"/>
		</g>
		<g>
			<rect x="48.9" y="48.5" class="st0" width="31.9" height="6.4"/>
			<rect x="48.9" y="48.5" class="st1" width="14.3" height="6.4"/>
			<rect x="48.9" y="53.3" class="st2" width="31.9" height="1.6"/>
			<rect x="50.5" y="48.5" class="st3" width="1.6" height="4.8"/>
			<rect x="69.7" y="48.5" class="st2" width="1.6" height="4.8"/>
			<rect x="72.8" y="48.5" class="st2" width="1.6" height="4.8"/>
			<rect x="76" y="48.5" class="st2" width="1.6" height="4.8"/>
			<rect x="79.2" y="48.5" class="st2" width="1.6" height="4.8"/>
		</g>
		<g>
			<rect x="47.3" y="54.9" class="st0" width="31.9" height="6.4"/>
			<rect x="47.3" y="54.9" class="st1" width="14.3" height="6.4"/>
			<rect x="47.3" y="59.7" class="st2" width="31.9" height="1.6"/>
			<rect x="48.9" y="54.9" class="st3" width="1.6" height="4.8"/>
			<rect x="68.1" y="54.9" class="st2" width="1.6" height="4.8"/>
			<rect x="71.2" y="54.9" class="st2" width="1.6" height="4.8"/>
			<rect x="74.4" y="54.9" class="st2" width="1.6" height="4.8"/>
			<rect x="77.6" y="54.9" class="st2" width="1.6" height="4.8"/>
		</g>
		<g>
			<rect x="48.9" y="61.3" class="st0" width="31.9" height="6.4"/>
			<rect x="48.9" y="61.3" class="st1" width="14.3" height="6.4"/>
			<rect x="48.9" y="66.1" class="st2" width="31.9" height="1.6"/>
			<rect x="50.5" y="61.3" class="st3" width="1.6" height="4.8"/>
			<rect x="69.7" y="61.3" class="st2" width="1.6" height="4.8"/>
			<rect x="72.8" y="61.3" class="st2" width="1.6" height="4.8"/>
			<rect x="76" y="61.3" class="st2" width="1.6" height="4.8"/>
			<rect x="79.2" y="61.3" class="st2" width="1.6" height="4.8"/>
		</g>
	</g>
	<path class="st6" d="M79.2,77.2C79.2,77.2,79.1,77.2,79.2,77.2l-1.7,0.1c0,0-2.1-8-11.2-8H55.3l-3.2-1.6h-3.2v6.4h3.2v4.8v1.6h14.3
		h12.8V77.2z"/>
	<path class="st7" d="M47.2,80.4H76c0-1.6,0-9.6-11.3-9.6H47.2c-2.6,0-4.8,2.1-4.8,4.8S44.6,80.4,47.2,80.4z"/>
	<g>
		<path class="st7" d="M76,79.1c-3.9,0.8-7.9,1.3-7.9,1.3h8C76,80.2,76,79.7,76,79.1z"/>
		<path class="st7" d="M93.6,69.3c-4.9,3-8,6.4-11.2,8c-1,0.5-2.9,1-4.9,1.5c0.1,0.5,0.1,1.1,0.1,1.7V82H76H50.5v-1.6h17.5
			l-14.3-3.2l1.6-4.8c0,0-3.2-4.8-12.8-4.8c-8,0-9.6,3.2-12.8,3.2H17v20.7h17.5l25.6,7.1c1.7,0.5,4.4,0.2,6-0.5l21-9.8l15.9-14.3
			C104.7,72.5,101.5,64.5,93.6,69.3z"/>
	</g>
	<path class="st8" d="M93.6,72.5c-4.8,3.2-8,6.4-11.2,8c-1,0.5-2.8,0.9-4.8,1.1V82H76h-7.4c-0.4,0-0.6,0-0.6,0H50.5v-1.6h12.8H76
		c0-1.6-0.8-6.4-11.3-6.4H53.7c-1.8-1.4-5.3-3.2-11.1-3.2c-8,0-9.6,3.2-12.8,3.2H17v17.5h17.5l25.6,7.1c1.7,0.5,4.4,0.2,6-0.5
		l21-9.8l15.9-14.3C104.7,72.5,103.1,66.1,93.6,72.5z"/>
	<path class="st9" d="M74.4,78.8c0-2.6-2.1-4.8-4.8-4.8s-3.2,2.1-3.2,4.8c0,0.6,0,1.1,0.1,1.6h7.6C74.3,79.9,74.4,79.4,74.4,78.8z"
		/>
	<g>
		<rect x="25" y="69.3" class="st10" width="4.8" height="23.9"/>
		<rect x="25" y="75.6" class="st11" width="4.8" height="17.5"/>
		<rect x="10.7" y="67.7" class="st12" width="14.3" height="30.3"/>
		<rect x="10.7" y="75.6" class="st13" width="14.3" height="22.3"/>
	</g>
</g>
</svg>
