<?xml version="1.0" encoding="UTF-8" standalone="no"?>
<svg
   xmlns:dc="http://purl.org/dc/elements/1.1/"
   xmlns:cc="http://creativecommons.org/ns#"
   xmlns:rdf="http://www.w3.org/1999/02/22-rdf-syntax-ns#"
   xmlns:svg="http://www.w3.org/2000/svg"
   xmlns="http://www.w3.org/2000/svg"
   version="1.1"
   id="svg2"
   viewBox="0 0 111.30194 111.3"
   height="111.3"
   width="111.30193">
  <defs
     id="defs4" />
  <metadata
     id="metadata7">
    <rdf:RDF>
      <cc:Work
         rdf:about="">
        <dc:format>image/svg+xml</dc:format>
        <dc:type
           rdf:resource="http://purl.org/dc/dcmitype/StillImage" />
        <dc:title></dc:title>
      </cc:Work>
    </rdf:RDF>
  </metadata>
  <g
     transform="translate(-316.31436,-462.33512)"
     id="layer1">
    <g
       transform="matrix(0.17285977,0,0,0.17285977,307.67102,427.02852)"
       id="g3347">
      <path
         id="path3361"
         d="m 555.87695,251.69141 c -35.71839,3.13262 -71.05651,9.65503 -106.61709,14.17362 -119.15625,16.92794 -238.40059,33.27863 -357.500192,50.57921 -11.938838,1.36992 -24.374603,5.28059 -31.86709,15.31357 -8.409936,9.73691 -11.578113,23.17217 -9.037109,35.72657 1.345117,12.8265 3.262849,25.58318 4.9375,38.36914 97.910351,-14.30183 195.972751,-27.61962 293.935491,-41.58595 83.79236,-12.00153 167.70766,-23.2211 251.42584,-35.69335 3.49455,-2.44185 0.14777,-8.29628 0.50791,-12.05485 -2.65194,-15.12306 -2.70836,-31.37729 -10.0001,-45.24007 -7.66158,-11.94079 -21.36268,-20.24237 -35.78516,-19.58789 z m 54.5293,143.28711 c -3.66875,2.11328 -0.18409,11.27986 3.11914,5.88867 0.86898,-2.21182 0.29217,-7.16954 -3.11914,-5.88867 z m 1.81836,9.45898 c -4.36292,0.94483 -1.38555,10.40935 2.27734,5.7793 1.21991,-2.0209 0.80045,-6.06659 -2.27734,-5.7793 z m 1.25,8.75 c -4.36292,0.94483 -1.38555,10.40935 2.27734,5.7793 1.21991,-2.0209 0.80045,-6.06659 -2.27734,-5.7793 z m 0.68164,9.29102 c -3.66875,2.11328 -0.18409,11.27986 3.11914,5.88867 0.86898,-2.21182 0.29217,-7.16954 -3.11914,-5.88867 z m 60.76563,20.65039 c 3.00244,2.07734 5.00868,8.49283 9.46484,7.1914 3.08962,-4.18059 -4.29909,-6.84075 -6.20607,-9.629 -4.37145,-2.16155 -6.20896,-3.48278 -3.25877,2.4376 z m -573.65821,23.9082 c -12.091733,0.99367 -24.081077,3.02789 -36.041014,5.03125 8.604262,58.67385 15.849809,117.55588 25.111328,176.12695 1.058402,10.34387 8.372068,18.22736 13.064456,27.04883 0.0493,-68.82092 0.85133,-137.65544 0.1875,-206.46875 0.4103,-1.58815 -1.27811,-1.62471 -2.32227,-1.73828 z m 24.4375,211.05859 c -3.91844,-0.22937 -3.51692,5.72994 0.38477,4.99219 3.60493,1.03061 5.30163,-4.33011 1.28515,-4.83008 -0.54351,-0.13719 -1.11015,-0.2048 -1.66992,-0.16211 z m 10.02149,0 c -3.57374,-0.89727 -5.47771,4.62758 -1.31446,4.81446 3.09676,1.4299 7.8289,-2.4667 3.57422,-4.45704 -0.72012,-0.26542 -1.49501,-0.36715 -2.25976,-0.35742 z"
         style="fill:#f0dd82" />
      <path
         id="path3359"
         d="m 609.94141,395.78125 c -84.65242,10.9138 -169.20376,22.69601 -253.66507,35.0091 -2.864,-0.005 -7.09908,4.21394 -1.72556,4.15692 74.89891,0.95748 149.86819,0.65984 224.79291,0.41383 12.42576,-0.4239 25.06868,0.40513 37.39069,-0.8611 2.47245,-2.78735 -0.33096,-8.13978 -0.21247,-11.9284 -1.68543,-8.88216 -2.02559,-18.18936 -4.91449,-26.76887 -0.55359,0.0299 -1.11207,-0.0497 -1.66601,-0.0215 z m -469.49805,65.24219 c -13.30386,2.27999 -27.02776,3.46433 -40.39648,6.21094 0,67.44075 -1e-5,134.88151 0,202.32226 9.36633,7.9577 21.17837,14.15152 33.83203,12.74024 3.77019,-0.3875 11.15278,0.74902 9.90039,-5.16407 0.34018,-68.77134 1.14757,-137.55594 0.37214,-206.32342 -0.57128,-2.93355 0.77276,-9.56115 -3.70808,-9.78595 z"
         style="fill:#e0b552" />
      <path
         id="path3357"
         d="m 248.29492,431.83984 c -24.71767,0.35136 -49.51777,-0.50856 -74.18359,1.19336 -15.81675,2.93915 -28.11147,15.76167 -33.12953,30.67867 -2.20795,9.11348 -0.29442,19.09607 -0.93492,28.54008 0.27871,88.20519 -0.62526,176.42295 0.65387,264.62007 -0.30882,9.76942 1.70515,20.00203 8.4555,27.4229 4.9998,7.43388 13.72235,11.79336 21.98828,14.63477 22.35089,2.7133 45.01071,1.14349 67.4824,1.68958 11.79167,0.0214 23.58335,0.0432 35.37502,0.0643 10.81562,-18.89611 21.41832,-37.91982 32.77149,-56.50195 -37.57552,0 -75.15104,0 -112.72656,0 0,-7 0,-14 0,-21 41.68424,0 83.36848,0 125.05273,0 3.12649,-7.39917 8.52985,-13.7492 11.23437,-21.2793 -1.6918,-4.06998 -7.64836,-2.0962 -11.1621,-2.7207 -8.63525,2.59358 -3.97827,-8.10506 -5.125,-13 -10e-6,-7.66667 -10e-6,-15.33333 0,-23 13.00911,-0.58269 26.2837,1.12211 39.16015,-1.02344 4.43857,-2.44868 4.90601,-8.73855 8.13099,-12.41364 27.6367,-47.06483 54.88413,-94.53235 82.328,-141.768 4.6285,-6.91498 0.81898,-16.86854 7.89062,-22.53125 8.5666,-3.9642 12.34416,-13.33588 17.29688,-20.78711 6.41827,-10.76001 12.76403,-21.56386 19.15039,-32.34375 -79.90295,-0.15815 -159.80581,-0.49963 -239.70899,-0.47461 z m 407.40625,0.006 c -3.91844,-0.22937 -3.51692,5.72994 0.38477,4.99219 3.60493,1.03061 5.30163,-4.33011 1.28515,-4.83008 -0.54351,-0.13719 -1.11015,-0.2048 -1.66992,-0.16211 z m 35.27344,33.8418 c -4.36292,0.94483 -1.38555,10.40935 2.27734,5.7793 1.21991,-2.0209 0.80045,-6.06659 -2.27734,-5.7793 z m -57.80664,14.74805 c -4.33953,0.95204 0.2182,6.56328 3.01562,7.70703 4.31681,0.34079 2.85408,-5.1896 -0.0957,-6.19922 -0.88685,-0.59256 -1.75678,-1.65555 -2.91992,-1.50781 z m -342.37109,27.74609 c 32.24999,0 64.5,0 96.75,0 0.11161,6.11161 1.80217,13.80218 -7,11 -62.16667,0 -124.33334,0 -186.5,0 -0.11162,-6.11161 -1.80218,-13.80218 7,-11 29.91666,0 59.83333,0 89.75,0 z m 0,70 c 32.24999,0 64.5,0 96.75,0 0.11161,6.11161 1.80217,13.80218 -7,11 -62.16667,0 -124.33334,0 -186.5,0 -0.11162,-6.11161 -1.80218,-13.80218 7,-11 29.91666,0 59.83333,0 89.75,0 z m -60,85 c 12.24999,0 24.5,0 36.75,0 -10e-6,12 -10e-6,24 0,36 -24.5,0 -49.00001,0 -73.5,0 0,-12 0,-24 0,-36 12.24999,0 24.5,0 36.75,0 z M 682.71484,781.7207 c -3.19951,1.77033 -6.47119,4.77988 -7.60937,8.33789 2.18364,4.64943 6.29595,-1.08985 8.32226,-3.18945 1.78286,-1.50548 3.07846,-5.44143 -0.71289,-5.14844 z m -27.01367,13.875 c -3.91844,-0.22937 -3.51692,5.72994 0.38477,4.99219 3.60493,1.03061 5.30163,-4.33011 1.28515,-4.83008 -0.54351,-0.13719 -1.11015,-0.2048 -1.66992,-0.16211 z"
         style="fill:#9ec859" />
      <path
         id="path3355"
         d="m 483.18555,432.56836 c -9.8364,16.65364 -19.67365,33.30678 -29.50586,49.96289 59.83457,0.50515 119.67321,0.69726 179.5039,1.56055 6.3667,8.15744 3.27135,19.28233 4.2746,28.80658 0.16032,32.09277 0.0537,64.18628 0.0887,96.27935 -3.78336,5.9594 -10.17553,5.26529 -16.39844,5.00391 -56.53255,0 -113.06511,0 -169.59766,0 -5.95799,-3.78541 -5.26602,-10.17649 -5.0039,-16.40039 0,-33.97396 0,-67.94792 0,-101.92187 -31.94893,53.52504 -62.7606,107.72018 -94.13477,161.57812 -2.5636,3.63 2.35297,6.04443 5.49555,5.47884 14.03774,0.5203 28.09443,0.14676 42.13922,0.2653 -1e-5,12 -1e-5,24 0,36 -24.19467,0 -48.38933,0 -72.58399,0 -3.18669,7.80829 -9.03541,14.42832 -11.44336,22.53516 6.7838,2.58056 14.61397,0.59816 21.7656,1.3746 20.7535,0.16116 41.50786,0.0629 62.26175,0.0902 -1e-5,6.99479 0,13.98958 0,20.98438 -32.74155,0.21488 -65.48309,0.43016 -98.22461,0.64843 -10.63332,17.66402 -21.41371,35.34856 -30.74411,53.71741 -0.36644,3.14151 6.39058,1.19587 9.15222,1.8293 120.09139,0.1777 240.18878,0.28614 360.27653,-0.69795 11.67221,-0.73572 25.05825,1.52642 34.68059,-6.78626 8.61035,-6.35203 15.41083,-15.61297 18.23438,-25.82031 -0.1266,-100.76907 0.25265,-201.65079 -0.18946,-302.34961 -4.52255,-11.66255 -11.87316,-23.04458 -23.81836,-28.10742 -5.53885,-3.65689 -11.57408,-5.20378 -18.17766,-4.33007 -55.82228,-0.22999 -111.64457,-0.46078 -167.46687,-0.68751 l -0.50947,0.86049 -0.0745,0.12584 z m -326.77539,8.04883 c -3.50452,2.30805 -7.40544,5.3404 -8.96289,9.34179 1.78931,4.53047 6.01173,-0.61627 8.02539,-2.48046 1.96943,-1.5559 6.60486,-7.04567 0.9375,-6.86133 z m 329.38672,222.56445 c 13.91666,0 27.83333,0 41.75,0 0,12 0,24 0,36 -27.83334,0 -55.66667,0 -83.5,0 -10e-6,-12 -10e-6,-24 0,-36 13.91666,0 27.83333,0 41.75,0 z m 123.75,0 c 9.33333,0 18.66666,0 28,0 -10e-6,12 -10e-6,24 0,36 -18.66667,0 -37.33334,0 -56,0 -10e-6,-12 -10e-6,-24 0,-36 9.33333,0 18.66666,0 28,0 z m 0,60 c 9.33333,0 18.66666,0 28,0 0,7 -10e-6,14 0,21 -18.66667,0 -37.33334,0 -56,0 0,-7 -10e-6,-14 0,-21 9.33333,0 18.66666,0 28,0 z"
         style="fill:#8bb746" />
      <path
         id="path3353"
         d="m 192.04724,733.68111 0,-12.5 105,0 105,0 0,12.5 0,12.5 -105,0 -105,0 0,-12.5 z m 387.5,0 0,-12.5 30,0 30,0 0,12.5 0,12.5 -30,0 -30,0 0,-12.5 z m -387.5,-52.5 0,-20 38.75,0 38.75,0 0,20 0,20 -38.75,0 -38.75,0 0,-20 z m 120,0 0,-20 45,0 45,0 0,20 0,20 -45,0 -45,0 0,-20 z m 130,0 0,-20 43.75,0 43.75,0 0,20 0,20 -43.75,0 -43.75,0 0,-20 z m 137.5,0 0,-20 30,0 30,0 0,20 0,20 -30,0 -30,0 0,-20 z m -387.5,-97.5 0,-7.5 98.75,0 98.75,0 0,7.5 0,7.5 -98.75,0 -98.75,0 0,-7.5 z m 0,-70 0,-7.5 98.75,0 98.75,0 0,7.5 0,7.5 -98.75,0 -98.75,0 0,-7.5 z M 99.885786,467.9259 c 0.415364,-0.41537 1.493494,-0.45977 2.395834,-0.0986 0.99717,0.39903 0.70097,0.69523 -0.75521,0.7552 -1.31771,0.0543 -2.055988,-0.24116 -1.640624,-0.65652 z"
         style="fill:#466e39" />
      <path
         id="path3351"
         d="M 600.42188,326.13086 C 420.175,350.93113 239.99332,376.32629 59.873047,402.03711 c -5.750326,-0.11588 -2.270984,6.88128 -2.420354,10.45727 2.879746,20.35382 4.833335,40.95492 9.182073,61.03687 4.840262,2.11361 11.319103,-1.0204 16.768044,-1.04335 6.208594,-1.71865 13.719973,-0.38159 19.21242,-4.06407 2.69183,-3.80699 1.12946,-9.13232 3.19828,-13.32957 6.21349,-26.42956 27.89737,-47.70955 53.39352,-55.95168 22.94057,-4.04936 46.70326,-2.56392 70.13066,-3.27749 102.89985,-0.47887 205.80334,-0.33545 308.69264,1.352 23.97688,-0.11284 48.06318,1.21681 71.98334,-0.33623 3.45011,-2.78078 -0.0101,-8.56715 0.36161,-12.53607 -2.5611,-19.01352 -4.65299,-38.13881 -7.94364,-57.02838 -0.26163,-1.36935 -0.7693,-1.49751 -2.00976,-1.18555 z"
         style="fill:#3a4450" />
      <path
         id="path3349"
         d="m 282.05273,391.69336 c -38.34892,0.46918 -76.80192,-0.80047 -115.07226,2.10156 -16.7135,1.56204 -31.59797,11.34493 -43.46637,22.68804 -13.39025,12.74351 -21.82625,30.58575 -23.45941,48.94087 -0.133562,5.60098 6.91548,3.7428 10.22438,3.08749 11.48704,-1.64515 22.98228,-3.16842 34.49046,-4.74765 3.10939,-12.65114 14.7256,-21.40545 26.12261,-26.35743 60.89495,-1.88648 122.07131,-1.79932 183.05289,-2.61796 85.88766,-12.36446 171.87148,-24.36721 257.70536,-36.91719 2.44,-2.05609 0.59675,-6.03088 -2.68945,-5.16015 -90.83727,-1.59005 -181.70502,-0.77938 -272.55469,-1.0335 -18.11784,-0.006 -36.23568,0.005 -54.35352,0.0159 z"
         style="fill:#2a343f" />
    </g>
  </g>
</svg>
