<?xml version="1.0" encoding="utf-8"?>
<!-- Generator: Adobe Illustrator 21.0.2, SVG Export Plug-In . SVG Version: 6.00 Build 0)  -->
<svg version="1.1" id="Слой_1" xmlns="http://www.w3.org/2000/svg" xmlns:xlink="http://www.w3.org/1999/xlink" x="0px" y="0px"
	 viewBox="0 0 100 100" style="enable-background:new 0 0 100 100;" xml:space="preserve">
<style type="text/css">
	.st0{fill:#3DB39E;}
	.st1{clip-path:url(#SVGID_2_);}
	.st2{fill:#E4E7E7;}
	.st3{fill:#D8DBDB;}
	.st4{fill:#324D5B;}
	.st5{fill:#283E49;}
	.st6{fill:#CCD0D2;}
	.st7{fill:#F3F3F3;}
	.st8{fill:none;}
	.st9{font-family:'Designosaur';}
	.st10{font-size:31.9298px;}
	.st11{font-size:24px;}
</style>
<path class="st0" d="M50,0C22.4,0,0,22.4,0,50s22.4,50,50,50s50-22.4,50-50S77.6,0,50,0z"/>
<g>
	<defs>
		<circle id="SVGID_1_" cx="50" cy="50" r="50"/>
	</defs>
	<clipPath id="SVGID_2_">
		<use xlink:href="#SVGID_1_"  style="overflow:visible;"/>
	</clipPath>
	<g class="st1">
		<path class="st2" d="M19,56h82c1.7,0,3,1.3,3,3v51c0,1.7-1.3,3-3,3H19c-1.7,0-3-1.3-3-3V59C16,57.3,17.3,56,19,56z"/>
		<path class="st3" d="M16,79h80v21H16V79z"/>
		<path class="st4" d="M36,50h65c1.7,0,3,1.3,3,3v14c0,1.7-1.3,3-3,3H36c-1.7,0-3-1.3-3-3V53C33,51.3,34.3,50,36,50z"/>
		<path class="st5" d="M43,57h56c1.1,0,2,0.9,2,2v2c0,1.1-0.9,2-2,2H43c-1.1,0-2-0.9-2-2v-2C41,57.9,41.9,57,43,57z"/>
		<path class="st0" d="M36,86c1.7,0,3,1.3,3,3s-1.3,3-3,3s-3-1.3-3-3S34.3,86,36,86z"/>
		<path class="st4" d="M46,86c1.7,0,3,1.3,3,3s-1.3,3-3,3s-3-1.3-3-3S44.3,86,46,86z"/>
		<path class="st6" d="M45,20h-5c-2.8,0-5,2.2-5,5v6c0,2.8,2.2,5,5,5h5c2.8,0,5-2.2,5-5v-6C50,22.2,47.8,20,45,20z"/>
		<path class="st7" d="M97,20H40c2.8,0,5,2.2,5,5v35h55V23C100,21.3,98.7,20,97,20z"/>
	</g>
</g>
<rect x="59.2" y="30.6" class="st8" width="52" height="38.7"/>
<text transform="matrix(1 0 0 1 59.1742 54.2737)"><tspan x="0" y="0" class="st3 st9 st10">0</tspan><tspan x="20" y="0" class="st3 st9 st11">%</tspan></text>
</svg>
