<?xml version="1.0" encoding="UTF-8" standalone="no"?>
<svg
   xmlns:dc="http://purl.org/dc/elements/1.1/"
   xmlns:cc="http://creativecommons.org/ns#"
   xmlns:rdf="http://www.w3.org/1999/02/22-rdf-syntax-ns#"
   xmlns:svg="http://www.w3.org/2000/svg"
   xmlns="http://www.w3.org/2000/svg"
   version="1.1"
   id="svg2"
   viewBox="0 0 219.21568 226.50608"
   height="63.925049mm"
   width="61.867535mm">
  <defs
     id="defs4" />
  <metadata
     id="metadata7">
    <rdf:RDF>
      <cc:Work
         rdf:about="">
        <dc:format>image/svg+xml</dc:format>
        <dc:type
           rdf:resource="http://purl.org/dc/dcmitype/StillImage" />
        <dc:title></dc:title>
      </cc:Work>
    </rdf:RDF>
  </metadata>
  <g
     transform="translate(-213.82002,-404.5138)"
     id="layer1">
    <path
       id="path3349"
       d="m 421.64695,624.91153 c -10.78881,-8.20743 -25.87286,-15.74683 -37.36125,-18.67414 -7.0111,-1.78646 -11.55239,-1.92361 -33.125,-1.00035 -40.15253,1.71845 -51.93515,1.2602 -64.75933,-2.51861 -29.49043,-8.68972 -51.42545,-27.46196 -63.87273,-54.663 -6.66703,-14.56946 -8.70862,-24.48606 -8.70862,-42.30035 0,-18.60576 2.08016,-28.04535 9.77874,-44.375 12.92331,-27.41199 36.52771,-46.79313 66.19939,-54.35513 7.12947,-1.81698 13.92859,-2.51743 24.375,-2.51111 18.24994,0.011 31.67296,3.0452 46.98755,10.62118 20.63994,10.21037 34.84687,24.4274 44.96314,44.99506 8.1848,16.64074 9.89897,24.37499 9.97357,45 0.0543,14.98312 -0.35811,18.84199 -2.86672,26.83095 -3.62485,11.54369 -9.85974,24.11414 -11.66248,23.51322 -0.74067,-0.2469 -2.3009,-3.51908 -3.46717,-7.27153 -1.16628,-3.75245 -2.86665,-8.22889 -3.77863,-9.94764 -4.77982,-9.0083 -15.01665,-17.24108 -26.76386,-21.52432 -7.28899,-2.6577 -7.377,-2.74458 -3.80471,-3.75615 2.01127,-0.56953 6.46936,-0.88004 9.90686,-0.69002 l 6.25,0.34549 0.37536,-7.93656 c 0.79774,-16.86678 -4.94162,-31.29406 -17.92376,-45.05581 -23.0833,-24.46952 -60.31353,-27.98881 -86.6506,-8.19088 -32.27733,24.26331 -35.67601,72.60454 -7.11273,101.16783 11.83577,11.83576 31.14156,20.3457 43.46583,19.15961 l 4.0959,-0.39419 0.36508,-9.6875 c 0.20079,-5.32813 0.79543,-9.6875 1.32142,-9.6875 0.52598,0 3.62368,3.63275 6.88378,8.07279 11.81157,16.08653 22.63476,22.91002 46.5152,29.32551 18.80912,5.05307 26.37717,8.03035 35.72179,14.05296 8.7764,5.65639 26.06773,22.45505 26.06773,25.32499 0,3.77795 -2.41379,2.95776 -11.38875,-3.8698 z m -58.04306,-47.22464 c -5.00113,-5.00111 -3.21829,-14.43181 2.72827,-14.43181 5.35379,0 11.63213,6.1938 11.67574,11.51852 0.0517,6.31594 -9.1419,8.17542 -14.40401,2.91329 z m 25.4387,-16.5889 c -4.93488,-5.65454 -6.2455,-12.35014 -2.68491,-13.71646 3.39642,-1.30334 8.13981,5.24886 7.6822,10.61165 -0.43883,5.14264 -2.24142,6.26259 -4.99729,3.10481 z"
       style="fill:#fea01d" />
  </g>
</svg>
