<?xml version="1.0" encoding="UTF-8" standalone="no"?>
<svg
   xmlns:dc="http://purl.org/dc/elements/1.1/"
   xmlns:cc="http://creativecommons.org/ns#"
   xmlns:rdf="http://www.w3.org/1999/02/22-rdf-syntax-ns#"
   xmlns:svg="http://www.w3.org/2000/svg"
   xmlns="http://www.w3.org/2000/svg"
   version="1.1"
   id="svg2"
   viewBox="0 0 687.26886 784.10354"
   height="221.29144mm"
   width="193.96254mm">
  <defs
     id="defs4" />
  <metadata
     id="metadata7">
    <rdf:RDF>
      <cc:Work
         rdf:about="">
        <dc:format>image/svg+xml</dc:format>
        <dc:type
           rdf:resource="http://purl.org/dc/dcmitype/StillImage" />
        <dc:title></dc:title>
      </cc:Work>
    </rdf:RDF>
  </metadata>
  <g
     transform="translate(32.587022,-63.354191)"
     id="layer1">
    <path
       id="path3362"
       d="m 19.712851,845.85791 c -26.1257796,-5.69152 -47.25465,-27.83552 -51.22615,-53.68732 -0.92764,-6.03832 -1.23545,-73.84727 -0.99577,-219.36499 l 0.34692,-210.62502 3.66558,-10.5015 c 6.47438,-18.5484 21.9650904,-38.24333 39.38297,-50.07158 6.51577,-4.42478 395.384349,-221.356061 410.733009,-229.128421 15.91299,-8.05811 38.16783,-11.42173 49.38903,-7.4647 6.20589,2.18844 13.52948,9.70241 17.34039,17.79118 l 3.23907,6.875 0.32992,216.222061 c 0.36159,236.9741 0.6194,227.88216 -6.99219,246.586 -6.56802,16.13954 -19.33389,30.05384 -35.08493,38.24122 -4.53905,2.35939 -88.12782,35.6369 -185.75282,73.95003 -116.29866,45.64164 -179.773209,71.16852 -184.092859,74.03467 -9.10617,6.04207 -13.39872,13.56129 -13.39627,23.46607 0.002,9.67112 3.11486,15.27102 10.59507,19.0625 10.95934,5.55496 5.36773,6.89544 194.595309,-46.65044 96.13932,-27.20461 186.89251,-52.81828 201.67376,-56.91924 49.17943,-13.6445 69.89512,-27.74249 79.99844,-54.44261 6.12058,-16.17491 6.16143,-17.21636 6.20796,-158.23773 l 0.0436,-132.18751 24.6875,0.0185 c 26.71546,0.02 35.62891,1.31605 46.32413,6.73574 6.43917,3.26296 15.02048,11.78134 18.34519,18.21063 5.65816,10.94167 5.59906,8.53222 5.61204,228.78518 0.008,135.39288 -0.43331,210.9644 -1.26278,216.25001 -3.34286,21.30179 -16.40616,35.29433 -39.33107,42.12879 -7.1008,2.11691 -22.90254,2.24811 -296.87503,2.46473 -245.553559,0.19416 -290.605429,-0.0393 -297.500029,-1.54123 z M 328.79438,392.90656 c 9.87619,-3.3979 20.29312,-10.40633 29.3067,-19.71729 9.69823,-10.01821 15.47277,-19.43793 19.77792,-32.26274 2.92866,-8.72435 3.28934,-11.49524 2.8665,-22.02255 -0.43055,-10.71958 -0.89146,-12.7009 -4.19565,-18.0359 -5.14911,-8.31386 -12.03234,-11.8125 -23.23989,-11.8125 -15.08579,0 -29.37109,6.95561 -43.70897,21.28217 -15.56416,15.55189 -23.64812,33.87039 -23.6259,53.53701 0.0182,16.14619 5.16958,25.58762 16.41924,30.09339 5.13675,2.0574 18.94888,1.502 26.40005,-1.06159 z"
       style="fill:#f47e34" />
  </g>
</svg>
