<?xml version="1.0" encoding="utf-8"?>
<!-- Generator: Adobe Illustrator 21.0.2, SVG Export Plug-In . SVG Version: 6.00 Build 0)  -->
<svg version="1.1"
	 id="svg2" xmlns:cc="http://creativecommons.org/ns#" xmlns:dc="http://purl.org/dc/elements/1.1/" xmlns:rdf="http://www.w3.org/1999/02/22-rdf-syntax-ns#" xmlns:svg="http://www.w3.org/2000/svg"
	 xmlns="http://www.w3.org/2000/svg" xmlns:xlink="http://www.w3.org/1999/xlink" x="0px" y="0px" viewBox="0 0 517 627.3"
	 style="enable-background:new 0 0 517 627.3;" xml:space="preserve">
<style type="text/css">
	.st0{fill:#F47E34;}
</style>
<g id="layer1" transform="translate(32.587022,-63.354191)">
	<path id="path3362" class="st0" d="M6.8,652c-19.7-4.3-35.5-20.9-38.5-40.4c-0.7-4.5-0.9-55.6-0.7-165l0.3-158.4l2.8-7.9
		c4.9-14,16.5-28.8,29.6-37.7c4.9-3.3,297.4-166.5,309-172.4c12-6.1,28.7-8.6,37.2-5.6c4.7,1.6,10.2,7.3,13,13.4l2.4,5.2l0.2,162.7
		c0.3,178.3,0.5,171.4-5.3,185.5c-4.9,12.1-14.5,22.6-26.4,28.8c-3.4,1.8-66.3,26.8-139.7,55.6C103.1,550,55.4,569.2,52.1,571.4
		C45.3,575.9,42,581.6,42,589c0,7.3,2.3,11.5,8,14.3c8.2,4.2,4,5.2,146.4-35.1c72.3-20.5,140.6-39.7,151.7-42.8
		c37-10.3,52.6-20.9,60.2-41c4.6-12.2,4.6-13,4.7-119l0-99.4l18.6,0c20.1,0,26.8,1,34.8,5.1c4.8,2.5,11.3,8.9,13.8,13.7
		c4.3,8.2,4.2,6.4,4.2,172.1c0,101.8-0.3,158.7-0.9,162.7c-2.5,16-12.3,26.6-29.6,31.7c-5.3,1.6-17.2,1.7-223.3,1.9
		C45.8,653.3,11.9,653.1,6.8,652L6.8,652z M239.3,311.3c7.4-2.6,15.3-7.8,22-14.8c7.3-7.5,11.6-14.6,14.9-24.3
		c2.2-6.6,2.5-8.6,2.2-16.6c-0.3-8.1-0.7-9.6-3.2-13.6c-3.9-6.3-9.1-8.9-17.5-8.9c-11.3,0-22.1,5.2-32.9,16
		c-11.7,11.7-17.8,25.5-17.8,40.3c0,12.1,3.9,19.2,12.4,22.6C223.3,313.6,233.7,313.2,239.3,311.3L239.3,311.3z"/>
</g>
</svg>
