<?xml version="1.0" encoding="utf-8"?>
<!-- Generator: Adobe Illustrator 21.0.2, SVG Export Plug-In . SVG Version: 6.00 Build 0)  -->
<svg version="1.1"
	 id="svg2" xmlns:cc="http://creativecommons.org/ns#" xmlns:dc="http://purl.org/dc/elements/1.1/" xmlns:rdf="http://www.w3.org/1999/02/22-rdf-syntax-ns#" xmlns:svg="http://www.w3.org/2000/svg"
	 xmlns="http://www.w3.org/2000/svg" xmlns:xlink="http://www.w3.org/1999/xlink" x="0px" y="0px" viewBox="0 0 451 451"
	 style="enable-background:new 0 0 451 451;" xml:space="preserve">
<style type="text/css">
	.st0{fill:#EE4336;}
</style>
<g id="layer1" transform="translate(-100.98214,-221.91576)">
	<g id="g3347" transform="translate(-0.0591869,0.06823693)">
		<path id="path3351" class="st0" d="M309.2,656.2c1-0.3,2.5-0.3,3.5,0s0.2,0.5-1.8,0.5S308.3,656.5,309.2,656.2z M340.2,656.2
			c1-0.3,2.5-0.3,3.5,0s0.2,0.5-1.8,0.5S339.3,656.5,340.2,656.2z M299.3,655.3c0.3-0.3,1.2-0.4,1.9-0.1c0.8,0.3,0.6,0.6-0.6,0.6
			C299.5,655.9,298.9,655.6,299.3,655.3L299.3,655.3z M351.3,655.3c0.3-0.3,1.2-0.4,1.9-0.1c0.8,0.3,0.6,0.6-0.6,0.6
			C351.5,655.9,350.9,655.6,351.3,655.3L351.3,655.3z M312.7,641.2c1.2-0.2,3.3-0.2,4.5,0c1.2,0.2,0.2,0.4-2.3,0.4
			S311.5,641.4,312.7,641.2z M335.7,641.2c1.2-0.2,3.3-0.2,4.5,0c1.2,0.2,0.2,0.4-2.3,0.4S334.5,641.4,335.7,641.2z M301.7,640.2
			c0.7-0.3,1.8-0.3,2.5,0s0.1,0.5-1.3,0.5S301.1,640.5,301.7,640.2z M348.7,640.2c0.7-0.3,1.8-0.3,2.5,0s0.1,0.5-1.3,0.5
			S348.1,640.5,348.7,640.2z M294.3,639.3c0.3-0.3,1.2-0.4,1.9-0.1c0.8,0.3,0.6,0.6-0.6,0.6C294.5,639.9,293.9,639.6,294.3,639.3
			L294.3,639.3z M356.3,639.3c0.3-0.3,1.2-0.4,1.9-0.1c0.8,0.3,0.6,0.6-0.6,0.6C356.5,639.9,355.9,639.6,356.3,639.3L356.3,639.3z
			 M185.9,603.2c-1.2-1.6-1.2-1.6,0.4-0.4c1,0.8,1.8,1.5,1.8,1.8C188,605.3,187.2,604.8,185.9,603.2z M466,603.4
			c0.7-0.8,1.5-1.5,1.7-1.5s-0.1,0.7-0.7,1.5c-0.7,0.8-1.5,1.5-1.7,1.5S465.3,604.2,466,603.4z M456,592.4c0.7-0.8,1.5-1.5,1.7-1.5
			s-0.1,0.7-0.7,1.5c-0.7,0.8-1.5,1.5-1.7,1.5S455.3,593.2,456,592.4z M169.9,587.2c-1.2-1.6-1.2-1.6,0.4-0.4c1,0.8,1.8,1.5,1.8,1.8
			C172,589.3,171.2,588.8,169.9,587.2z M482,587.4c0.7-0.8,1.5-1.5,1.7-1.5s-0.1,0.7-0.7,1.5c-0.7,0.8-1.5,1.5-1.7,1.5
			S481.3,588.2,482,587.4z M471,577.4c0.7-0.8,1.5-1.5,1.7-1.5s-0.1,0.7-0.7,1.5c-0.7,0.8-1.5,1.5-1.7,1.5S470.3,578.2,471,577.4z
			 M230.1,537.5c0-1.1,0.2-1.6,0.5-1.3s0.4,1.2,0.1,1.9C230.4,538.9,230.1,538.7,230.1,537.5L230.1,537.5z M251,521.9
			c0-0.6,0.2-1,0.4-1c0.2,0,0.7,0.4,1.1,1c0.3,0.5,0.1,1-0.4,1C251.5,522.9,251,522.5,251,521.9z M518.1,478.5
			c0-1.1,0.2-1.6,0.5-1.3s0.4,1.2,0.1,1.9C518.4,479.9,518.1,479.7,518.1,478.5L518.1,478.5z M534.1,473.5c0-1.1,0.2-1.6,0.5-1.3
			s0.4,1.2,0.1,1.9C534.4,474.9,534.1,474.7,534.1,473.5L534.1,473.5z M118.1,472.5c0-1.1,0.2-1.6,0.5-1.3c0.3,0.3,0.4,1.2,0.1,1.9
			C118.4,473.9,118.1,473.7,118.1,472.5L118.1,472.5z M131.2,470.9c0-1.4,0.2-1.9,0.5-1.3s0.3,1.8,0,2.5S131.2,472.3,131.2,470.9z
			 M519.2,470.9c0-1.4,0.2-1.9,0.5-1.3c0.3,0.7,0.3,1.8,0,2.5C519.4,472.8,519.2,472.3,519.2,470.9z M535.2,462.9
			c0-1.9,0.2-2.7,0.5-1.8c0.3,1,0.3,2.5,0,3.5C535.4,465.6,535.2,464.8,535.2,462.9z M117.2,461.9c0-1.9,0.2-2.7,0.5-1.8
			c0.3,1,0.3,2.5,0,3.5S117.2,463.8,117.2,461.9z M130.2,459.4c0-2.2,0.2-3.2,0.4-2.3c0.3,1,0.3,2.8,0,4
			C130.5,462.4,130.3,461.6,130.2,459.4z M520.3,458.9c0-2.5,0.2-3.5,0.4-2.3c0.2,1.2,0.2,3.3,0,4.5
			C520.5,462.4,520.3,461.4,520.3,458.9z M520.3,435.9c0-2.5,0.2-3.5,0.4-2.3c0.2,1.2,0.2,3.3,0,4.5
			C520.5,439.4,520.3,438.4,520.3,435.9z M130.2,435.4c0-2.2,0.2-3.2,0.4-2.3c0.3,1,0.3,2.8,0,4
			C130.5,438.4,130.3,437.6,130.2,435.4z M535.2,431.9c0-1.9,0.2-2.7,0.5-1.8c0.3,1,0.3,2.5,0,3.5
			C535.4,434.6,535.2,433.8,535.2,431.9z M117.2,430.9c0-1.9,0.2-2.7,0.5-1.8c0.3,1,0.3,2.5,0,3.5S117.2,432.8,117.2,430.9z
			 M131.1,424.5c0-1.1,0.2-1.6,0.5-1.3c0.3,0.3,0.4,1.2,0.1,1.9C131.4,425.9,131.1,425.7,131.1,424.5L131.1,424.5z M519.2,423.9
			c0-1.4,0.2-1.9,0.5-1.3s0.3,1.8,0,2.5S519.2,425.3,519.2,423.9z M534.1,421.5c0-1.1,0.2-1.6,0.5-1.3c0.3,0.3,0.4,1.2,0.1,1.9
			C534.4,422.9,534.1,422.7,534.1,421.5L534.1,421.5z M118.1,420.5c0-1.1,0.2-1.6,0.5-1.3c0.3,0.3,0.4,1.2,0.1,1.9
			C118.4,421.9,118.1,421.7,118.1,420.5L118.1,420.5z M518.1,416.5c0-1.1,0.2-1.6,0.5-1.3c0.3,0.3,0.4,1.2,0.1,1.9
			C518.4,417.9,518.1,417.7,518.1,416.5L518.1,416.5z M119.1,413.5c0-1.1,0.2-1.6,0.5-1.3c0.3,0.3,0.4,1.2,0.1,1.9
			C119.4,414.9,119.1,414.7,119.1,413.5L119.1,413.5z M400.5,372.9c-0.3-0.5-0.1-1,0.4-1c0.6,0,1.1,0.5,1.1,1c0,0.6-0.2,1-0.4,1
			C401.3,373.9,400.8,373.5,400.5,372.9z M152.1,355.5c0-1.1,0.2-1.6,0.5-1.3s0.4,1.2,0.1,1.9C152.4,356.9,152.1,356.7,152.1,355.5
			L152.1,355.5z M470.9,317.2c-1.2-1.6-1.2-1.6,0.4-0.4c1.7,1.3,2.2,2.1,1.4,2.1C472.4,318.9,471.6,318.1,470.9,317.2z M481.9,307.2
			c-1.2-1.6-1.2-1.6,0.4-0.4c1.7,1.3,2.2,2.1,1.4,2.1C483.4,308.9,482.6,308.1,481.9,307.2z M196,302.4c0.7-0.8,1.5-1.5,1.7-1.5
			c0.3,0-0.1,0.7-0.7,1.5c-0.7,0.8-1.5,1.5-1.7,1.5S195.3,303.2,196,302.4z M455.9,302.2c-1.2-1.6-1.2-1.6,0.4-0.4
			c1.7,1.3,2.2,2.1,1.4,2.1C457.4,303.9,456.6,303.1,455.9,302.2z M465.9,291.2c-1.2-1.6-1.2-1.6,0.4-0.4c1.7,1.3,2.2,2.1,1.4,2.1
			C467.4,292.9,466.6,292.1,465.9,291.2z M294.3,255.3c0.3-0.3,1.2-0.4,1.9-0.1c0.8,0.3,0.6,0.6-0.6,0.6
			C294.5,255.9,293.9,255.6,294.3,255.3z M356.3,255.3c0.3-0.3,1.2-0.4,1.9-0.1c0.8,0.3,0.6,0.6-0.6,0.6
			C356.5,255.9,355.9,255.6,356.3,255.3z M301.7,254.2c0.7-0.3,1.8-0.3,2.5,0s0.1,0.5-1.3,0.5S301.1,254.5,301.7,254.2z
			 M348.7,254.2c0.7-0.3,1.8-0.3,2.5,0s0.1,0.5-1.3,0.5S348.1,254.5,348.7,254.2z M312.7,253.2c1.2-0.2,3.3-0.2,4.5,0
			s0.2,0.4-2.3,0.4S311.5,253.4,312.7,253.2z M335.7,253.2c1.2-0.2,3.3-0.2,4.5,0s0.2,0.4-2.3,0.4S334.5,253.4,335.7,253.2z
			 M299.3,239.3c0.3-0.3,1.2-0.4,1.9-0.1c0.8,0.3,0.6,0.6-0.6,0.6C299.5,239.9,298.9,239.6,299.3,239.3L299.3,239.3z M351.3,239.3
			c0.3-0.3,1.2-0.4,1.9-0.1c0.8,0.3,0.6,0.6-0.6,0.6C351.5,239.9,350.9,239.6,351.3,239.3L351.3,239.3z M309.2,238.2
			c1-0.3,2.5-0.3,3.5,0s0.2,0.5-1.8,0.5S308.3,238.5,309.2,238.2z M340.2,238.2c1-0.3,2.5-0.3,3.5,0s0.2,0.5-1.8,0.5
			S339.3,238.5,340.2,238.2z"/>
		<path id="path3349" class="st0" d="M305.7,655.9c-47.8-5-93.5-26.7-127.3-60.4c-49.7-49.6-71.1-121.7-56.9-191.5
			c3-14.7,8.8-32.7,14.5-44.7c4.2-9,6.1-11.2,9.7-11.2c2.4,0,6.3,4.3,6.3,7c0,1-2,6.2-4.4,11.6c-13,29.4-18.3,56-17.3,86.9
			c1.3,39.7,13.4,75.6,36.4,107.8c8.3,11.6,27.1,30.7,39,39.6c38.5,28.9,80.8,42.4,127.8,40.8c29-1,51.8-6.5,77.4-18.8
			c51.7-24.7,90-71.2,104.1-126.4c4.6-18,5.5-26.1,5.5-49c0-22.9-0.9-31-5.5-49c-6.6-25.6-19.4-51.5-35.7-72
			c-26.4-33.2-63.2-57.1-103.7-67.4c-18-4.6-26.1-5.5-49-5.5s-31,0.9-49,5.5c-31.5,8-60.2,23.9-85.2,47.1c-7,6.5-9.9,7.2-13.8,3.3
			c-5.3-5.3-2.4-9.8,15-23.8c29.4-23.7,61.6-38.2,99.2-44.8c18.5-3.3,49.3-3.3,67.8,0c81.6,14.4,144.9,71,167.6,149.7
			c5.6,19.5,7.4,33.6,7.4,56.9c0,23.3-1.8,37.4-7.4,56.9c-20.4,71-74.9,125.2-145.9,145C359.9,655.4,327.8,658.2,305.7,655.9
			L305.7,655.9z M232.6,541.1c-0.9-1-1.7-2.6-1.7-3.5c0-2.3,41.8-137.4,43.6-140.8c1.6-3.1-5.2-0.8,79.9-27.2
			c33-10.2,61.2-18.6,62.5-18.6c2.9,0,6.9,2.5,6.9,4.4c0,2.3-43.7,143.8-44.8,144.8c-0.6,0.6-31.3,10.4-68.4,21.9
			C241,543.7,236.1,544.9,232.6,541.1z M309.5,505.4c30.8-9.2,56.5-17.3,57.1-17.9c1.1-1.1,35.6-114.7,35-115.3
			c-0.6-0.6-114.2,34-115.3,35c-0.6,0.6-8.7,26.3-17.9,57.1c-9.2,30.8-17,56.6-17.3,57.4c-0.3,0.9,0,1.2,0.9,0.9
			C252.9,522.5,278.7,514.7,309.5,505.4L309.5,505.4z"/>
	</g>
</g>
</svg>
