<?xml version="1.0" encoding="utf-8"?>
<!-- Generator: Adobe Illustrator 21.0.2, SVG Export Plug-In . SVG Version: 6.00 Build 0)  -->
<svg version="1.1"
	 id="svg2" xmlns:cc="http://creativecommons.org/ns#" xmlns:dc="http://purl.org/dc/elements/1.1/" xmlns:rdf="http://www.w3.org/1999/02/22-rdf-syntax-ns#" xmlns:svg="http://www.w3.org/2000/svg"
	 xmlns="http://www.w3.org/2000/svg" xmlns:xlink="http://www.w3.org/1999/xlink" x="0px" y="0px" viewBox="0 0 451 451"
	 style="enable-background:new 0 0 451 451;" xml:space="preserve">
<style type="text/css">
	.st0{fill:#25BA4A;}
</style>
<g id="layer1" transform="translate(-100.98214,-221.91576)">
	<g id="g3364" transform="translate(337.18544,-205.71417)">
		<path id="path3368" class="st0" d="M196.3,813.6c0.7-0.8,1.5-1.5,1.7-1.5s-0.1,0.7-0.7,1.5c-0.7,0.8-1.5,1.5-1.7,1.5
			C195.3,815.1,195.6,814.5,196.3,813.6z M-220.2,684.1c0-69.6,0.1-98,0.3-63.3c0.1,34.8,0.1,91.7,0,126.5
			C-220.1,782.2-220.2,753.7-220.2,684.1z M198.8,653.1c0-86.6,0.1-122.1,0.3-78.8s0.1,114.2,0,157.5S198.8,739.8,198.8,653.1z
			 M-205.2,799.9c-0.3-0.7-0.4-55.5-0.2-121.8l0.3-120.5l0.2,121.3l0.2,121.3h194h194l0.3-146.8l0.3-146.8l0,147l0,147l-194.3,0.3
			C-165.3,801.1-204.8,800.9-205.2,799.9L-205.2,799.9z M95.3,717.4l-24.5-24.8l24.8,24.5c23,22.8,25.2,25,24.5,25
			C119.9,742.1,108.8,731,95.3,717.4z M-140.7,741.1c0-0.3,10.8-11.3,24-24.5s24-23.8,24-23.5c0,0.3-10.8,11.3-24,24.5
			S-140.7,741.4-140.7,741.1z M-11.9,691.5c0.7-0.3,1.8-0.3,2.5,0s0.1,0.5-1.3,0.5S-12.6,691.7-11.9,691.5z M-207.8,554.4
			c-1.2-1.6-1.2-1.6,0.4-0.4c1,0.8,1.8,1.5,1.8,1.8C-205.7,556.6-206.5,556-207.8,554.4z M-220.6,497.7c0-1.1,0.2-1.6,0.5-1.3
			c0.3,0.3,0.4,1.2,0.1,1.9C-220.3,499.1-220.5,498.9-220.6,497.7L-220.6,497.7z"/>
		<path id="path3366" class="st0" d="M-217,814.1l-2.6-2.1V684.1V556.3l2.6-2.1c3.3-2.6,5.4-2.6,8.7,0l2.6,2.1l0.3,122.2l0.3,122.2
			h194.5h194.5V653.1V505.6l-200.3-0.5c-196.9-0.5-200.4-0.5-201.8-2.4c-1.5-2.1-1.9-7.3-0.7-9.2c2.3-3.4,2.8-3.4,208.2-3.4
			s206,0,208.2,3.4c0.4,0.6,0.7,72.5,0.8,159.8l0,158.7l-2.6,2.1l-2.6,2.1H-10.7h-203.7L-217,814.1L-217,814.1z M-137.8,753
			c-2.9-1.1-5.4-5.7-4.4-8.6c0.3-1,12-13.2,25.9-27.1c27.5-27.4,28.2-27.9,33.3-22.8c5.1,5.1,4.6,5.8-22.8,33.2
			c-13.9,13.9-26.2,25.4-27.2,25.7C-134.3,753.7-136.4,753.5-137.8,753z M110.8,753.2c-1.1-0.5-13.1-12-26.8-25.7
			c-26.9-27-27.4-27.8-22.3-32.8c5.1-5.1,5.8-4.6,33.3,22.8c13.9,13.9,25.6,26.1,25.9,27.1c1,3.1-1.5,7.5-4.8,8.6
			c-1.7,0.6-3.1,1-3.2,1C112.9,754,111.9,753.6,110.8,753.2L110.8,753.2z M-78.4,626.9c-35.3-35.3-64.2-65-64.2-66
			c0-4.6,4.2-8.8,8.8-8.8c0.9,0,29,27.3,62.5,60.7l60.8,60.7l60.8-60.7c33.4-33.4,61.5-60.7,62.5-60.7c4.6,0,8.8,4.2,8.8,8.8
			c0,0.9-28.9,30.6-64.2,66c-60.7,60.7-64.4,64.3-67.8,64.3S-17.8,687.6-78.4,626.9L-78.4,626.9z"/>
	</g>
</g>
</svg>
