<?xml version="1.0" encoding="utf-8"?>
<!-- Generator: Adobe Illustrator 21.0.2, SVG Export Plug-In . SVG Version: 6.00 Build 0)  -->
<svg version="1.1"
	 id="svg2" xmlns:cc="http://creativecommons.org/ns#" xmlns:dc="http://purl.org/dc/elements/1.1/" xmlns:rdf="http://www.w3.org/1999/02/22-rdf-syntax-ns#" xmlns:svg="http://www.w3.org/2000/svg"
	 xmlns="http://www.w3.org/2000/svg" xmlns:xlink="http://www.w3.org/1999/xlink" x="0px" y="0px" viewBox="0 0 451 451"
	 style="enable-background:new 0 0 451 451;" xml:space="preserve">
<style type="text/css">
	.st0{fill:#25BA4A;}
</style>
<g id="layer1" transform="translate(-100.98214,-221.91576)">
	<g id="g3381" transform="translate(-352.47979,-418.86133)">
		<path id="path3385" class="st0" d="M767.2,1075.7c2.6-0.2,6.9-0.2,9.5,0c2.6,0.2,0.5,0.4-4.8,0.4
			C766.7,1076,764.5,1075.9,767.2,1075.7z M753.7,1074.7c0.7-0.3,1.8-0.3,2.5,0s0.1,0.5-1.3,0.5S753,1075,753.7,1074.7z
			 M788.2,1074.8c0.3-0.3,1.2-0.4,1.9-0.1c0.8,0.3,0.6,0.6-0.6,0.6C788.4,1075.4,787.8,1075.1,788.2,1074.8L788.2,1074.8z
			 M746.2,1073.8c0.3-0.3,1.2-0.4,1.9-0.1c0.8,0.3,0.6,0.6-0.6,0.6C746.4,1074.4,745.8,1074.1,746.2,1073.8L746.2,1073.8z
			 M758.7,1059.7c0.7-0.3,1.8-0.3,2.5,0s0.1,0.5-1.3,0.5S758,1060,758.7,1059.7z M783.7,1059.7c0.7-0.3,1.8-0.3,2.5,0
			s0.1,0.5-1.3,0.5S783,1060,783.7,1059.7z M859.9,1041.9c0.7-0.8,1.5-1.5,1.7-1.5c0.3,0-0.1,0.7-0.7,1.5c-0.7,0.8-1.5,1.5-1.7,1.5
			C858.9,1043.4,859.2,1042.7,859.9,1041.9z M866.9,1034.9c0.7-0.8,1.5-1.5,1.7-1.5c0.3,0-0.1,0.7-0.7,1.5c-0.7,0.8-1.5,1.5-1.7,1.5
			C865.9,1036.4,866.2,1035.7,866.9,1034.9z M862.9,1015.9c0.7-0.8,1.5-1.5,1.7-1.5c0.3,0-0.1,0.7-0.7,1.5c-0.7,0.8-1.5,1.5-1.7,1.5
			C861.9,1017.4,862.2,1016.7,862.9,1015.9z M888.1,996.4c0-1.4,0.2-1.9,0.5-1.3c0.3,0.7,0.3,1.8,0,2.5
			C888.3,998.3,888.1,997.8,888.1,996.4z M873.2,989.9c0-2.8,0.2-3.8,0.4-2.2c0.2,1.5,0.2,3.8,0,5
			C873.4,993.9,873.2,992.7,873.2,989.9L873.2,989.9z M888,984c0-1.1,0.2-1.6,0.5-1.3s0.4,1.2,0.1,1.9
			C888.3,985.4,888,985.2,888,984L888,984z M586.4,979.4c-1.6-1.7-2.6-3-2.4-3s1.8,1.3,3.4,3c1.6,1.6,2.6,3,2.4,3
			C589.5,982.4,588,981.1,586.4,979.4z M602.8,973.7c-1.2-1.6-1.2-1.6,0.4-0.4c1,0.8,1.8,1.5,1.8,1.8
			C604.9,975.8,604.1,975.3,602.8,973.7z M564.4,957.4c-1.6-1.7-2.6-3-2.4-3s1.8,1.3,3.4,3c1.6,1.6,2.6,3,2.4,3
			C567.5,960.4,566,959.1,564.4,957.4z M720.2,959.8c0.3-0.3,1.2-0.4,1.9-0.1c0.8,0.3,0.6,0.6-0.6,0.6
			C720.4,960.4,719.8,960.1,720.2,959.8L720.2,959.8z M651.4,893.4c-35.7-35.8-64.8-65-64.5-65c0.3,0,29.7,29.3,65.5,65
			c35.7,35.7,64.8,65,64.5,65S687.2,929.2,651.4,893.4L651.4,893.4z M551.8,943.7c-1.2-1.6-1.2-1.6,0.4-0.4c1,0.8,1.8,1.5,1.8,1.8
			C553.9,945.8,553.1,945.3,551.8,943.7z M570.3,941.2l-1.9-2.3l2.3,1.9c2.1,1.8,2.7,2.6,1.9,2.6
			C572.4,943.4,571.4,942.4,570.3,941.2z M788.7,908.7c1.8-0.2,4.7-0.2,6.5,0c1.8,0.2,0.3,0.4-3.3,0.4S786.9,908.9,788.7,908.7z
			 M755.9,906.9c0.7-0.8,1.5-1.5,1.7-1.5c0.3,0-0.1,0.7-0.7,1.5c-0.7,0.8-1.5,1.5-1.7,1.5C754.9,908.4,755.2,907.7,755.9,906.9z
			 M783.2,893.8c0.3-0.3,1.2-0.4,1.9-0.1c0.8,0.3,0.6,0.6-0.6,0.6C783.4,894.4,782.8,894.1,783.2,893.8L783.2,893.8z M798.2,893.8
			c0.3-0.3,1.2-0.4,1.9-0.1c0.8,0.3,0.6,0.6-0.6,0.6C798.4,894.4,797.8,894.1,798.2,893.8L798.2,893.8z M476.2,795.8
			c0.3-0.3,1.2-0.4,1.9-0.1c0.8,0.3,0.6,0.6-0.6,0.6C476.4,796.4,475.8,796.1,476.2,795.8L476.2,795.8z M469.1,782.4
			c0-1.9,0.2-2.7,0.5-1.8c0.3,1,0.3,2.5,0,3.5C469.3,785.1,469.1,784.3,469.1,782.4z M484.3,772.4c0-4.7,0.2-6.6,0.4-4.3
			c0.2,2.3,0.2,6.2,0,8.5C484.4,779,484.3,777.1,484.3,772.4z M469.1,762.4c0-1.9,0.2-2.7,0.5-1.8c0.3,1,0.3,2.5,0,3.5
			C469.3,765.1,469.1,764.3,469.1,762.4z M651.2,752.9c0-3.9,0.2-5.5,0.4-3.8c0.2,1.8,0.2,4.9,0,7
			C651.4,758.2,651.2,756.8,651.2,752.9L651.2,752.9z M485,757c0-1.1,0.2-1.6,0.5-1.3s0.4,1.2,0.1,1.9
			C485.3,758.4,485,758.2,485,757z M636.1,752.9c0-1.7,0.2-2.4,0.5-1.8s0.3,2,0,3C636.3,755.1,636.1,754.6,636.1,752.9L636.1,752.9z
			 M470,753c0-1.1,0.2-1.6,0.5-1.3s0.4,1.2,0.1,1.9C470.3,754.4,470,754.2,470,753L470,753z M502.9,684.3c0-0.3,1.3-1.8,3-3.4
			c1.6-1.6,3-2.6,3-2.4c0,0.3-1.4,1.8-3,3.4C504.3,683.5,502.9,684.6,502.9,684.3z M552.2,671.7c1.5-0.2,4-0.2,5.5,0
			c1.5,0.2,0.3,0.4-2.8,0.4C551.9,672.1,550.6,671.9,552.2,671.7z M551.2,656.7c2.1-0.2,5.4-0.2,7.5,0c2.1,0.2,0.4,0.4-3.8,0.4
			S549.1,656.9,551.2,656.7z"/>
		<path id="path3383" class="st0" d="M748.6,1073.8c-43.2-6.7-90.4-32.1-141.2-76c-44.1-38.1-84.7-85.6-108.3-126.6
			c-7.6-13.3-8.2-15.8-4.8-19.2c3.2-3.2,7.6-3.4,10.3-0.3c1.1,1.2,4.4,6.5,7.3,11.8c16.8,30.1,45.2,65.4,80.2,99.5
			c66.7,65.1,126.6,97.5,180.4,97.5c37.3,0,67.7-14.9,91.7-45c10.5-13.1,12.4-28.1,5.4-42.5c-1.8-3.7-9.4-11.9-29.7-32.1
			c-24.9-24.7-27.8-27.3-33.3-29.5c-8.4-3.3-20.6-3.3-29,0c-5.4,2.1-8.4,4.7-29.1,25.2c-21.1,20.9-23.4,22.9-26.5,22.9
			c-3.2,0-7.8-4.4-70.2-66.8c-38.8-38.8-66.7-67.5-66.7-68.6c0-3.5,2.5-6.4,24-28.2c12-12.1,22.5-23.5,23.5-25.3
			c3.2-6.3,4.7-16.6,3.5-23.5c-2.2-11.9-4.1-14.4-33.3-43.5c-24.8-24.7-27.6-27.2-33.1-29.3c-7.8-3-19.7-3.3-27.3-0.6
			c-14.1,4.9-35.7,26.6-45.2,45.5c-9.4,18.8-12.3,31.8-12.5,55.9c-0.1,16.1-0.2,17.4-2.1,18.8c-3.1,2.3-8.4,1.4-10.8-1.9
			c-1.8-2.5-2-4.2-2-18.5c0-22.8,3.3-38.4,11.9-57.1c12.2-26.4,38.8-52.5,59-57.9c7-1.9,22.9-1.7,29.6,0.2
			c12.7,3.7,15.9,6.3,44.5,34.8c28.5,28.5,31.2,31.9,34.9,44.5c2.1,7.1,2.1,22,0,29.1c-3.4,11.7-7,16.5-26.8,36.7l-19,19.3
			l58.9,58.9l58.9,58.9l19.1-18.8c16.9-16.6,20.1-19.3,27.2-22.8c18.4-9.2,39.1-7.7,55.5,4c3.5,2.5,17.4,15.7,30.9,29.4
			c23.2,23.5,24.8,25.3,28.7,33.3c6.6,13.6,7.6,26,3.1,40.5c-2.3,7.4-6.2,13.6-14.6,23.4c-20.1,23.3-46.8,38.5-76.2,43.5
			C783.5,1075.8,761,1075.8,748.6,1073.8L748.6,1073.8z"/>
	</g>
</g>
</svg>
