<?xml version="1.0" encoding="utf-8"?>
<!-- Generator: Adobe Illustrator 21.0.2, SVG Export Plug-In . SVG Version: 6.00 Build 0)  -->
<svg version="1.1"
	 id="svg2" xmlns:cc="http://creativecommons.org/ns#" xmlns:dc="http://purl.org/dc/elements/1.1/" xmlns:rdf="http://www.w3.org/1999/02/22-rdf-syntax-ns#" xmlns:svg="http://www.w3.org/2000/svg"
	 xmlns="http://www.w3.org/2000/svg" xmlns:xlink="http://www.w3.org/1999/xlink" x="0px" y="0px" viewBox="0 0 451 451"
	 style="enable-background:new 0 0 451 451;" xml:space="preserve">
<style type="text/css">
	.st0{fill:#25BA4A;}
</style>
<g id="layer1" transform="translate(-100.98214,-221.91576)">
	<g id="g3398" transform="translate(-441.15228,-384.57045)">
		<path id="path3402" class="st0" d="M762.2,1041.4c2.9-0.2,7.6-0.2,10.5,0c2.9,0.2,0.5,0.4-5.3,0.4
			C761.7,1041.7,759.4,1041.6,762.2,1041.4z M745.2,1040.5c0.7-0.3,2-0.3,3,0c1,0.3,0.4,0.5-1.2,0.5
			C745.3,1040.9,744.6,1040.7,745.2,1040.5L745.2,1040.5z M787.2,1040.5c0.7-0.3,1.8-0.3,2.5,0c0.7,0.3,0.1,0.5-1.3,0.5
			S786.6,1040.7,787.2,1040.5z M736.8,1039.5c0.3-0.3,1.2-0.4,1.9-0.1c0.8,0.3,0.6,0.6-0.6,0.6
			C737,1040.1,736.4,1039.8,736.8,1039.5L736.8,1039.5z M795.8,1039.5c0.3-0.3,1.2-0.4,1.9-0.1c0.8,0.3,0.6,0.6-0.6,0.6
			C796,1040.1,795.4,1039.8,795.8,1039.5L795.8,1039.5z M730.8,1038.5c0.3-0.3,1.2-0.4,1.9-0.1c0.8,0.3,0.6,0.6-0.6,0.6
			C731,1039.1,730.4,1038.8,730.8,1038.5L730.8,1038.5z M749.2,1025.5c0.7-0.3,2-0.3,3,0c1,0.3,0.4,0.5-1.2,0.5
			C749.3,1025.9,748.6,1025.7,749.2,1025.5L749.2,1025.5z M782.2,1025.5c0.7-0.3,2-0.3,3,0c1,0.3,0.4,0.5-1.2,0.5
			C782.3,1025.9,781.6,1025.7,782.2,1025.5L782.2,1025.5z M740.8,1024.5c0.3-0.3,1.2-0.4,1.9-0.1c0.8,0.3,0.6,0.6-0.6,0.6
			C741,1025.1,740.4,1024.8,740.8,1024.5L740.8,1024.5z M792.8,1024.5c0.3-0.3,1.2-0.4,1.9-0.1c0.8,0.3,0.6,0.6-0.6,0.6
			C793,1025.1,792.4,1024.8,792.8,1024.5L792.8,1024.5z M907.5,987.6c0.7-0.8,1.5-1.5,1.7-1.5c0.3,0-0.1,0.7-0.7,1.5
			c-0.7,0.8-1.5,1.5-1.7,1.5C906.5,989.1,906.8,988.4,907.5,987.6z M623.9,984.9l-1.9-2.3l2.3,1.9c2.1,1.8,2.7,2.6,1.9,2.6
			C626,987.1,625,986.1,623.9,984.9z M613.9,974.9l-1.9-2.3l2.3,1.9c2.1,1.8,2.7,2.6,1.9,2.6C616,977.1,615,976.1,613.9,974.9z
			 M922.5,972.6c0.7-0.8,1.5-1.5,1.7-1.5c0.3,0-0.1,0.7-0.7,1.5c-0.7,0.8-1.5,1.5-1.7,1.5C921.5,974.1,921.8,973.4,922.5,972.6z
			 M914.5,958.6c0.7-0.8,1.5-1.5,1.7-1.5c0.3,0-0.1,0.7-0.7,1.5c-0.7,0.8-1.5,1.5-1.7,1.5C913.5,960.1,913.8,959.4,914.5,958.6z
			 M559.6,861.7c0-1.1,0.2-1.6,0.5-1.3c0.3,0.3,0.4,1.2,0.1,1.9C559.9,863.1,559.6,862.9,559.6,861.7L559.6,861.7z M574.6,858.7
			c0-1.1,0.2-1.6,0.5-1.3c0.3,0.3,0.4,1.2,0.1,1.9C574.9,860.1,574.6,859.9,574.6,858.7L574.6,858.7z M959.6,858.7
			c0-1.1,0.2-1.6,0.5-1.3s0.4,1.2,0.1,1.9C959.9,860.1,959.6,859.9,959.6,858.7L959.6,858.7z M558.7,853.6c0-1.6,0.2-2.4,0.5-1.8
			c0.3,0.7,0.3,2,0,3C558.9,855.8,558.7,855.3,558.7,853.6z M975.7,854.1c0-1.4,0.2-1.9,0.5-1.3c0.3,0.7,0.3,1.8,0,2.5
			C975.9,856.1,975.7,855.5,975.7,854.1z M573.7,849.6c0-1.6,0.2-2.4,0.5-1.8c0.3,0.7,0.3,2,0,3
			C573.9,851.8,573.7,851.3,573.7,849.6z M960.7,849.6c0-1.6,0.2-2.4,0.5-1.8c0.3,0.7,0.3,2,0,3
			C960.9,851.8,960.7,851.3,960.7,849.6L960.7,849.6z M557.9,832.1c0-6.9,0.2-9.7,0.4-6.3s0.2,9.1,0,12.5S557.9,839,557.9,832.1z
			 M976.9,832.1c0-6.9,0.2-9.7,0.4-6.3s0.2,9.1,0,12.5S976.9,839,976.9,832.1z M961.8,832.1c0-3,0.2-4.3,0.4-2.8
			c0.2,1.5,0.2,4,0,5.5C962,836.4,961.8,835.1,961.8,832.1z M572.8,832.1c0-2.5,0.2-3.5,0.4-2.3c0.2,1.2,0.2,3.3,0,4.5
			C573,835.6,572.8,834.6,572.8,832.1z M760,770.1c0-35.5,0.1-50,0.3-32.3c0.2,17.7,0.2,46.8,0,64.5
			C760.1,820.1,760,805.6,760,770.1z M573.7,814.6c0-1.7,0.2-2.4,0.5-1.8c0.3,0.7,0.3,2,0,3C573.9,816.8,573.7,816.3,573.7,814.6z
			 M960.7,814.1c0-1.4,0.2-1.9,0.5-1.3c0.3,0.7,0.3,1.8,0,2.5C960.9,816.1,960.7,815.5,960.7,814.1z M558.7,811.1
			c0-1.4,0.2-1.9,0.5-1.3s0.3,1.8,0,2.5C558.9,813.1,558.7,812.5,558.7,811.1z M975.7,810.1c0-1.4,0.2-1.9,0.5-1.3
			c0.3,0.7,0.3,1.8,0,2.5C975.9,812.1,975.7,811.5,975.7,810.1z M574.6,805.7c0-1.1,0.2-1.6,0.5-1.3c0.3,0.3,0.4,1.2,0.1,1.9
			C574.9,807.1,574.6,806.9,574.6,805.7L574.6,805.7z M959.6,805.7c0-1.1,0.2-1.6,0.5-1.3c0.3,0.3,0.4,1.2,0.1,1.9
			C959.9,807.1,959.6,806.9,959.6,805.7L959.6,805.7z M559.6,802.7c0-1.1,0.2-1.6,0.5-1.3c0.3,0.3,0.4,1.2,0.1,1.9
			C559.9,804.1,559.6,803.9,559.6,802.7L559.6,802.7z M772.4,702.4c-1.2-1.6-1.2-1.6,0.4-0.4c1.7,1.3,2.2,2.1,1.4,2.1
			C773.9,704.1,773.1,703.3,772.4,702.4z M922.4,691.4c-1.2-1.6-1.2-1.6,0.4-0.4c1.7,1.3,2.2,2.1,1.4,2.1
			C923.9,693.1,923.1,692.3,922.4,691.4z M624,679.1c1-1.1,2-2,2.3-2c0.3,0-0.3,0.9-1.3,2c-1,1.1-2,2-2.3,2
			C622.4,681.1,623,680.2,624,679.1z M907.4,676.4c-1.2-1.6-1.2-1.6,0.4-0.4c1.7,1.3,2.2,2.1,1.4,2.1
			C908.9,678.1,908.1,677.3,907.4,676.4z M740.2,639.5c0.7-0.3,1.8-0.3,2.5,0c0.7,0.3,0.1,0.5-1.3,0.5S739.6,639.7,740.2,639.5z
			 M792.8,639.5c0.3-0.3,1.2-0.4,1.9-0.1c0.8,0.3,0.6,0.6-0.6,0.6C793,640.1,792.4,639.8,792.8,639.5L792.8,639.5z M749.2,638.5
			c0.7-0.3,2-0.3,3,0c1,0.3,0.4,0.5-1.2,0.5C749.3,638.9,748.6,638.7,749.2,638.5z M782.2,638.5c0.7-0.3,2-0.3,3,0
			c1,0.3,0.4,0.5-1.2,0.5C782.3,638.9,781.6,638.7,782.2,638.5z M730.8,625.5c0.3-0.3,1.2-0.4,1.9-0.1c0.8,0.3,0.6,0.6-0.6,0.6
			C731,626.1,730.4,625.8,730.8,625.5L730.8,625.5z M736.8,624.5c0.3-0.3,1.2-0.4,1.9-0.1c0.8,0.3,0.6,0.6-0.6,0.6
			C737,625.1,736.4,624.8,736.8,624.5L736.8,624.5z M795.8,624.5c0.3-0.3,1.2-0.4,1.9-0.1c0.8,0.3,0.6,0.6-0.6,0.6
			C796,625.1,795.4,624.8,795.8,624.5L795.8,624.5z M745.2,623.5c0.7-0.3,2-0.3,3,0c1,0.3,0.4,0.5-1.2,0.5
			C745.3,623.9,744.6,623.7,745.2,623.5z M787.2,623.5c0.7-0.3,1.8-0.3,2.5,0s0.1,0.5-1.3,0.5S786.6,623.7,787.2,623.5z
			 M762.2,622.4c2.9-0.2,7.6-0.2,10.5,0c2.9,0.2,0.5,0.4-5.3,0.4C761.7,622.7,759.4,622.6,762.2,622.4z"/>
		<path id="path3400" class="st0" d="M746.5,1040.4c-71.5-7.2-134.9-51.3-166.6-115.8c-14.7-29.9-20.3-53.2-21.1-87
			c-0.8-31,3.3-54.8,13.8-81.5c8.7-22.1,12.3-26.5,18.7-22.9c5.1,2.9,5.1,5.6-0.5,18.1c-13.5,30.4-19.4,62.5-17.2,94
			c6.3,89.1,71.9,162.1,160.4,178.5c8.1,1.5,14.8,1.8,34.5,1.8c22.6,0,25.4-0.2,37-2.7c30.2-6.4,56.9-18.6,80.5-36.6
			c9-6.9,26.9-24.6,34-33.6c27.9-35.7,41.7-75.6,41.7-120.5c0-44.9-13.8-84.8-41.7-120.5c-7.1-9-25-26.8-34-33.6
			c-23.6-18-50.3-30.1-80.5-36.6c-11.6-2.5-14.3-2.7-37.5-2.7c-22.1,0-26.3,0.2-36.1,2.2c-36.6,7.4-69.2,23.7-94.9,47.5
			c-10.4,9.6-12.8,10.5-17,6.3c-4.1-4.1-3.3-7.7,2.8-13.7c19.1-18.4,44-34.3,69.6-44.3c35.2-13.8,79.1-17.3,118.1-9.5
			c22.8,4.6,51.9,16.7,71.5,29.6c49.3,32.7,81.2,81.1,92.2,140.3c1.4,7.5,1.8,14.8,1.8,35c0,20.2-0.4,27.5-1.8,35
			c-17.4,93.4-89.6,161.7-182.7,173C783.7,1041,754.6,1041.3,746.5,1040.4L746.5,1040.4z M842.7,901c-2.4-0.9-76.5-59.8-80-63.5
			l-2.3-2.5v-65.4v-65.4l2.6-2.1c3.4-2.7,5.6-2.6,9.1,0.3l2.8,2.4l0.3,62l0.3,62l36.7,29.2c20.2,16,37.5,30.1,38.5,31.2
			C855.7,895,849.8,903.6,842.7,901L842.7,901z"/>
	</g>
</g>
</svg>
