<svg xmlns="http://www.w3.org/2000/svg" width="12.84" height="12.875" viewBox="0 0 12.84 12.875">
  <metadata><?xpacket begin="﻿" id="W5M0MpCehiHzreSzNTczkc9d"?>
<x:xmpmeta xmlns:x="adobe:ns:meta/" x:xmptk="Adobe XMP Core 5.6-c138 79.159824, 2016/09/14-01:09:01        ">
   <rdf:RDF xmlns:rdf="http://www.w3.org/1999/02/22-rdf-syntax-ns#">
      <rdf:Description rdf:about=""/>
   </rdf:RDF>
</x:xmpmeta>
                                                                                                    
                                                                                                    
                                                                                                    
                                                                                                    
                                                                                                    
                                                                                                    
                                                                                                    
                                                                                                    
                                                                                                    
                                                                                                    
                                                                                                    
                                                                                                    
                                                                                                    
                                                                                                    
                                                                                                    
                                                                                                    
                                                                                                    
                                                                                                    
                                                                                                    
                                                                                                    
                           
<?xpacket end="w"?></metadata>
<defs>
    <style>
      .cls-1 {
        fill: #09cf3a;
        fill-rule: evenodd;
      }
    </style>
  </defs>
  <path id="_checked" data-name=" checked" class="cls-1" d="M1200.36,447.875a0.521,0.521,0,0,1-.38-0.159l-3-3a0.524,0.524,0,0,1,0-.754l0.86-.854a0.5,0.5,0,0,1,.37-0.159,0.525,0.525,0,0,1,.38.159l1.77,1.767,3.91-3.909a0.5,0.5,0,0,1,.37-0.159,0.521,0.521,0,0,1,.38.159l0.85,0.853a0.524,0.524,0,0,1,0,.754l-5.14,5.139A0.5,0.5,0,0,1,1200.36,447.875Zm6.79-9.253a2.317,2.317,0,0,0-1.7-.708h-8.04a2.421,2.421,0,0,0-2.41,2.411v8.036a2.421,2.421,0,0,0,2.41,2.411h8.04a2.421,2.421,0,0,0,2.41-2.411v-8.036A2.329,2.329,0,0,0,1207.15,438.622Z" transform="translate(-1195 -437.906)"/>
</svg>
