<svg xmlns="http://www.w3.org/2000/svg" width="11.78" height="11.782" viewBox="0 0 11.78 11.782">
  <metadata><?xpacket begin="﻿" id="W5M0MpCehiHzreSzNTczkc9d"?>
<x:xmpmeta xmlns:x="adobe:ns:meta/" x:xmptk="Adobe XMP Core 5.6-c138 79.159824, 2016/09/14-01:09:01        ">
   <rdf:RDF xmlns:rdf="http://www.w3.org/1999/02/22-rdf-syntax-ns#">
      <rdf:Description rdf:about=""/>
   </rdf:RDF>
</x:xmpmeta>
                                                                                                    
                                                                                                    
                                                                                                    
                                                                                                    
                                                                                                    
                                                                                                    
                                                                                                    
                                                                                                    
                                                                                                    
                                                                                                    
                                                                                                    
                                                                                                    
                                                                                                    
                                                                                                    
                                                                                                    
                                                                                                    
                                                                                                    
                                                                                                    
                                                                                                    
                                                                                                    
                           
<?xpacket end="w"?></metadata>
<defs>
    <style>
      .cls-1 {
        fill: #09cf3a;
        fill-rule: evenodd;
      }
    </style>
  </defs>
  <path id="_" data-name="" class="cls-1" d="M1205.32,439.379a1.3,1.3,0,0,1,.39.946v6.964a1.338,1.338,0,0,1-1.33,1.34h-6.97a1.338,1.338,0,0,1-1.34-1.34v-6.964a1.337,1.337,0,0,1,1.34-1.339h6.97A1.287,1.287,0,0,1,1205.32,439.379Zm0.76-.757a2.317,2.317,0,0,0-1.7-.708h-6.97a2.421,2.421,0,0,0-2.41,2.411v6.964a2.419,2.419,0,0,0,2.41,2.411h6.97a2.419,2.419,0,0,0,2.41-2.411v-6.964A2.329,2.329,0,0,0,1206.08,438.622Z" transform="translate(-1195 -437.906)"/>
</svg>
