<?xml version="1.0" encoding="utf-8"?>
<!-- Generator: Adobe Illustrator 21.0.2, SVG Export Plug-In . SVG Version: 6.00 Build 0)  -->
<svg version="1.1"
	 id="svg3554" xmlns:cc="http://creativecommons.org/ns#" xmlns:dc="http://purl.org/dc/elements/1.1/" xmlns:rdf="http://www.w3.org/1999/02/22-rdf-syntax-ns#" xmlns:svg="http://www.w3.org/2000/svg"
	 xmlns="http://www.w3.org/2000/svg" xmlns:xlink="http://www.w3.org/1999/xlink" x="0px" y="0px" viewBox="0 0 619.6 638.7"
	 style="enable-background:new 0 0 619.6 638.7;" xml:space="preserve">
<style type="text/css">
	.st0{fill:#08B232;}
</style>
<g id="layer1" transform="translate(70.714287,-489.50504)">
	<path id="path3586" class="st0" d="M473.3,1124.3c-35-21.9-88.8-89.4-141.6-178c-8.9-14.9-16.4-27.3-16.6-27.5s0.4,5.1,1.4,11.8
		c1.4,9.8,1.5,15.3,0.4,29c-3.4,41-18.3,72.2-42.4,88.2c-16,10.6-38.7,15-57.7,11.2c-17.9-3.6-29.2-9.8-44.6-24.7l-8.9-8.5
		l-10.5,2.5c-12.7,3.1-30.8,3.4-42.1,0.7c-31.5-7.4-55.4-35-58.5-67.5c-2.2-23.5,8.7-57.6,27.1-84.7c15.6-22.9,47.1-48.3,84.5-68.1
		c7.7-4.1,13.7-7.8,13.3-8.2s-9.8,4-20.9,9.7c-53.8,27.7-92.1,36.8-134,31.7c-37.5-4.6-68.5-20.9-81.7-42.9
		c-13.6-22.7-14.9-47.5-3.7-70.7c4.1-8.6,7.2-12.7,16.6-22.2l11.6-11.7l-2.5-8.4c-1.9-6.3-2.5-12.2-2.6-23.4c0-13.1,0.4-16.2,3.2-24
		c4.1-11.4,13.1-25,21.4-32.3C-2.1,594.4,18.4,587,38,587c24-0.1,56.9,11,82.3,27.7c18.1,11.9,45.9,42.9,61.1,68.2
		c3,5,5.7,9.1,5.9,9.1s-1.6-4.4-4.1-9.7c-6.8-14.5-16.3-43.2-18.5-55.8c-4.6-26.4-0.7-59.1,10.2-85.1c10.5-25.3,33-44.8,57.4-50
		c27.1-5.7,52.5,2,74.1,22.6l11.1,10.6l9.8-2.6c14.9-3.9,34.1-3.6,47.6,0.7c18,5.8,35.2,19.4,44,34.9c10.2,17.9,12.3,41.5,5.9,65.2
		c-3.8,14-14.1,36.5-22.6,49.3c-11.4,17-29.3,33.8-52.4,49c-11.6,7.7-12.9,9.1-4.3,4.7c10.1-5.2,33.2-13.5,48.5-17.4
		c35-9,78.1-5.2,108,9.4c33.3,16.3,50.8,46.6,46,79.6c-2.8,19.7-17.2,42.2-34.3,53.6c-0.7,0.5,0,5.4,1.7,11.9
		c7.6,29.9,0.5,56.4-20.3,76.1c-15,14.1-32.3,20.6-55,20.6c-21.6,0-39.7-4.8-63.3-16.8c-7.3-3.8-15.3-8.1-17.7-9.7
		c-5.1-3.4-5.1-3.3,6.6,13.3c51.6,73.5,105.2,129.9,143,150.3l9.1,4.9l-17.5,13.3c-9.6,7.3-18.2,13.3-19.1,13.3
		S476.7,1126.4,473.3,1124.3L473.3,1124.3z M197.7,709.5c-0.8-1.4-1.6-2.5-2-2.5s-0.1,1.1,0.7,2.5s1.7,2.5,2,2.5
		C198.7,712,198.5,710.9,197.7,709.5z M192.1,699.4c-1.1-2.1-2.2-3.8-2.6-3.8s0.2,1.7,1.3,3.8s2.3,3.8,2.6,3.8
		C193.7,703.2,193.2,701.5,192.1,699.4z"/>
</g>
</svg>
