<?xml version="1.0" encoding="utf-8"?>
<!-- Generator: Adobe Illustrator 21.0.2, SVG Export Plug-In . SVG Version: 6.00 Build 0)  -->
<svg version="1.1" id="Layer_1" xmlns="http://www.w3.org/2000/svg" xmlns:xlink="http://www.w3.org/1999/xlink" x="0px" y="0px"
	 viewBox="0 0 39 24" style="enable-background:new 0 0 39 24;" xml:space="preserve">
<style type="text/css">
	.st0{fill:#FFFFFF;}
</style>
<path class="st0" d="M1.7,6h20.6C23.2,6,24,5.1,24,4s-0.8-2-1.7-2H1.7C0.8,2,0,2.9,0,4S0.8,6,1.7,6z M22.3,10H1.7
	C0.8,10,0,10.9,0,12s0.8,2,1.7,2h20.6c0.9,0,1.7-0.9,1.7-2S23.2,10,22.3,10z M22.3,18H1.7C0.8,18,0,18.9,0,20s0.8,2,1.7,2h20.6
	c0.9,0,1.7-0.9,1.7-2S23.2,18,22.3,18z"/>
</svg>
