<?xml version="1.0" encoding="utf-8"?>
<!-- Generator: Adobe Illustrator 21.0.2, SVG Export Plug-In . SVG Version: 6.00 Build 0)  -->
<svg version="1.1" id="Layer_1" xmlns="http://www.w3.org/2000/svg" xmlns:xlink="http://www.w3.org/1999/xlink" x="0px" y="0px"
	 viewBox="0 0 39 24" style="enable-background:new 0 0 39 24;" xml:space="preserve">
<style type="text/css">
	.st0{fill:#FFFFFF;}
</style>
<path class="st0" d="M19.1,2.1L12,9.2L4.9,2.1c-0.8-0.8-2-0.8-2.8,0s-0.8,2,0,2.8L9.2,12l-7.1,7.1c-0.8,0.8-0.8,2,0,2.8s2,0.8,2.8,0
	l7.1-7.1l7.1,7.1c0.8,0.8,2,0.8,2.8,0s0.8-2,0-2.8L14.8,12l7.1-7.1c0.8-0.8,0.8-2,0-2.8C21.1,1.3,19.9,1.3,19.1,2.1z"/>
</svg>
