<?xml version="1.0" encoding="utf-8"?>
<!-- Generator: Adobe Illustrator 21.0.2, SVG Export Plug-In . SVG Version: 6.00 Build 0)  -->
<svg version="1.1" id="Слой_1" xmlns="http://www.w3.org/2000/svg" xmlns:xlink="http://www.w3.org/1999/xlink" x="0px" y="0px"
	 viewBox="0 0 149 27.8" style="enable-background:new 0 0 149 27.8;" xml:space="preserve">
<style type="text/css">
	.st0{fill:#828995;}
</style>
<g>
	<path class="st0" d="M128.7,3.9L128.7,3.9c0.4-0.4,0.7-1,0.7-1.6c0-0.6-0.2-1.2-0.7-1.6c-1-0.8-2.5-0.8-3.4,0
		c-0.4,0.4-0.7,1-0.7,1.6c0,0.6,0.2,1.2,0.7,1.6C126.3,4.8,127.7,4.8,128.7,3.9z"/>
	<path class="st0" d="M148.7,15.2c-0.2-0.4-0.4-0.8-0.7-1.1c-0.3-0.3-0.7-0.6-1.2-0.9c-0.5-0.3-1-0.5-1.5-0.7
		c-0.3-0.1-0.6-0.2-0.9-0.3c-0.3-0.1-0.6-0.2-0.8-0.4c-0.2-0.1-0.4-0.3-0.6-0.5c-0.2-0.2-0.2-0.4-0.2-0.7c0-0.2,0.1-0.4,0.2-0.5
		c0.1-0.2,0.3-0.3,0.4-0.4c0.2-0.1,0.4-0.2,0.6-0.2c0.2-0.1,0.5-0.1,0.8-0.1c0.6,0,1.2,0.1,1.8,0.2c0.6,0.2,1.2,0.4,1.7,0.7V7.1
		c-0.6-0.2-1.2-0.3-1.8-0.4c-0.6-0.1-1.2-0.1-1.8-0.1c-0.7,0-1.5,0.1-2.2,0.3c-0.7,0.2-1.3,0.4-1.9,0.8c-0.4,0.2-0.7,0.6-1,0.9V7.2
		c-1.1-0.5-2.3-0.8-3.4-0.7c-2-0.1-4,0.7-5.5,2.1c-0.7,0.7-1.2,1.6-1.5,2.4V6.8h-4.2v2.4c-0.7-1.8-2-2.7-4.1-2.7
		c-1.7,0-3.3,0.9-4.1,2.5h-0.1V0h-4.1v9c-0.1-0.2-0.2-0.4-0.3-0.6c-1.8-2.2-5-2.5-7.2-0.8c-0.5,0.4-0.9,0.9-1.2,1.4h-0.1V6.8h-4.1
		v2.8c-0.8-2.1-2.5-3.1-5.3-3.1c-0.9,0-1.8,0.1-2.7,0.4c-0.7,0.1-1.3,0.4-1.9,0.6V6.8c-0.3-0.1-0.7-0.2-1-0.2c-1.7,0-2.9,1-3.6,2.9
		H85V6.8h-3.8l0,0v0h-0.3H77v1.7h0c-0.8-1.3-2.2-2.1-3.7-2c-1.7,0-3.4,0.7-4.4,2.1c-0.2,0.3-0.4,0.6-0.5,0.8V6.8h-3V2.5l-4.1,1.3
		v3.1H59v1.1c-0.7-1-1.8-1.4-3.3-1.4c-1.8,0-3.5,1-4.3,2.6h-0.1V6.8h-4.2v2.8c-0.8-2.1-2.5-3.1-5.3-3.1c-0.9,0-1.8,0.1-2.7,0.4
		c-0.8,0.2-1.6,0.5-2.4,0.8V11c1.3-1,2.9-1.5,4.6-1.5c1.1-0.2,2.2,0.6,2.4,1.8c0,0.2,0,0.4,0,0.6l-3.7,0.5c-1.9,0.3-3.2,0.9-3.9,2.1
		V6.8h-3.9v-3c0,0,0.1,0.1,0.1,0.1c1,0.9,2.5,0.9,3.4,0h0c0.4-0.4,0.7-1,0.7-1.6c0-0.6-0.2-1.2-0.7-1.6c-1-0.8-2.5-0.8-3.4,0
		c0,0-0.1,0.1-0.1,0.1V0l0,0h-4.2v8.5h-0.1c-0.7-1.3-2.1-2.1-3.6-2c-1.7,0-3.4,0.7-4.4,2.1c-0.5,0.7-0.9,1.4-1.1,2.1
		c-0.5-2.8-2.4-4.2-5.6-4.2c-0.9,0-1.8,0.1-2.7,0.4C10,7,9.4,7.2,8.8,7.5V6.8c-0.3-0.1-0.7-0.2-1-0.2c-1.7,0-2.9,1-3.5,2.9H4.1V6.8
		H0v14.3h4.2v-6.8c-0.1-1,0.2-2,0.8-2.9c0.5-0.7,1.3-1.1,2.1-1.1c0.4,0,0.9,0.1,1.3,0.2V11c0.1-0.1,0.3-0.2,0.4-0.2c0,0,0,0,0.1,0
		v-0.1c1.2-0.8,2.7-1.2,4.1-1.2c1.1-0.2,2.2,0.6,2.4,1.8c0,0.2,0,0.4,0,0.6l-3.7,0.5c-3.1,0.4-4.6,2-4.6,4.8
		c-0.1,1.2,0.3,2.3,1.1,3.1c0.8,0.8,1.9,1.2,3.1,1.2c1.7,0,3.2-0.9,4-2.4h0.1v2.1h3.9v-2.9c0.2,0.5,0.5,0.9,0.8,1.4
		c1,1.2,2.5,1.9,4.1,1.9c1.7,0.1,3.3-0.8,4.2-2.3h0.1v2h3.9v0h4.2v-1.4c0.1,0.2,0.2,0.4,0.4,0.5c0.8,0.8,1.9,1.2,3.1,1.2
		c1.7,0,3.2-0.9,4-2.4h0.1v2.1h3.9v0h3.7V13c0-0.8,0.2-1.6,0.7-2.2c0.4-0.6,1.1-0.9,1.8-0.9c1.5,0,2.2,1.1,2.2,3.3v7.9h4.1v-8.7v0
		c0-0.9-0.1-1.6-0.2-2.3h1.2v6.5c0,3.2,1.5,4.8,4.4,4.8c0.9,0.1,1.9-0.1,2.8-0.5v-2c0.1,0.2,0.2,0.4,0.4,0.5c1,1.3,2.5,2,4.1,1.9
		c1.7,0.1,3.4-0.9,4.2-2.4H77v1.1c0.2,2.2-1.5,4.2-3.7,4.4c-0.2,0-0.5,0-0.7,0c-1.5,0-2.9-0.5-4.2-1.3V27c1.3,0.6,2.8,0.9,4.3,0.8
		c2.7,0,4.8-0.7,6.3-2.2c1.2-1.3,1.9-2.8,2.1-4.5H85v-6.8c-0.1-1,0.2-2,0.8-2.9c0.5-0.7,1.3-1.1,2.1-1.1c0.4,0,0.9,0.1,1.3,0.2V11
		c0.1-0.1,0.2-0.1,0.4-0.2c0,0,0,0,0.1,0v-0.1c1.2-0.8,2.7-1.2,4.1-1.3c1.1-0.2,2.2,0.6,2.4,1.7c0,0.2,0,0.4,0,0.6l-3.6,0.5
		c-3.1,0.4-4.6,2-4.6,4.8c-0.1,1.2,0.4,2.3,1.1,3.1c0.8,0.8,1.9,1.2,3.1,1.2c1.7,0,3.2-0.9,4-2.4h0.1v2.1h3.4v6.6h4.1v-8.2h0.1
		c0.8,1.3,2.2,2.1,3.7,2v0c1.7,0,3.4-0.8,4.4-2.2c0.2-0.3,0.4-0.6,0.6-1v2.8h4.1V13c0-0.8,0.2-1.6,0.7-2.2c0.4-0.6,1.1-0.9,1.8-0.9
		c1.4,0,2.2,1,2.2,3.1v8.1h3.7v0h4.2v-3.8c0.3,0.8,0.8,1.5,1.4,2.2c1.3,1.3,3.1,2.1,5,2c1.2,0.1,2.4-0.2,3.5-0.6
		c1.2,0.4,2.5,0.6,3.8,0.6c0.8,0,1.6-0.1,2.3-0.3c0.7-0.1,1.4-0.4,2-0.8c0.6-0.4,1-0.9,1.4-1.5C149,17.8,149.1,16.4,148.7,15.2z
		 M15.3,15.3c0,0.8-0.2,1.6-0.7,2.2c-0.5,0.6-1.2,0.9-1.9,0.9c-0.5,0-1-0.1-1.3-0.5c-0.3-0.3-0.5-0.8-0.5-1.2c0-1.1,0.7-1.8,2-1.9
		l2.4-0.3V15.3z M28.3,14.2c0,1-0.2,2-0.8,2.8c-0.5,0.7-1.2,1.1-2.1,1.1c-0.8,0-1.6-0.4-2.1-1c-0.6-0.9-0.8-1.9-0.8-2.9
		c-0.1-1.1,0.2-2.2,0.8-3.2c0.8-1.2,2.4-1.5,3.6-0.7c0.2,0.1,0.4,0.3,0.5,0.5c0.5,0.7,0.8,1.5,0.8,2.3V14.2z M43.8,15.3
		c0,0.8-0.2,1.6-0.7,2.2v0c-0.5,0.6-1.2,0.9-1.9,0.9c-0.5,0-1-0.1-1.3-0.5c-0.3-0.3-0.5-0.8-0.5-1.2c0-1.1,0.7-1.8,2-1.9l2.4-0.3
		V15.3z M67,18.1c-1.1,0-1.7-0.8-1.7-2.2v-5.8h2.7c-0.6,1.3-0.9,2.8-0.8,4.3c-0.1,1.2,0.2,2.4,0.6,3.5C67.6,18,67.3,18.1,67,18.1z
		 M77.1,14.2c0,1-0.2,2-0.8,2.8l0,0c-0.5,0.7-1.3,1.1-2.1,1.1c-0.8,0-1.6-0.4-2.1-1c-0.5-0.8-0.8-1.8-0.8-2.8
		c-0.1-1.1,0.2-2.2,0.8-3.2c0.5-0.7,1.3-1.2,2.2-1.1c0.8,0,1.5,0.3,2,0.9c0.5,0.7,0.8,1.5,0.8,2.3V14.2z M96.2,15.3
		c0,0.8-0.2,1.6-0.7,2.2v0c-0.5,0.6-1.2,0.9-1.9,0.9c-0.5,0-1-0.1-1.3-0.5c-0.3-0.3-0.5-0.8-0.5-1.2c0-1.1,0.7-1.8,2-1.9l2.4-0.3
		V15.3z M108.5,16.9c-0.5,0.8-1.3,1.2-2.2,1.2c-0.8,0-1.5-0.3-1.9-0.9c-0.5-0.7-0.8-1.5-0.7-2.4v-1.1c0-1,0.2-1.9,0.8-2.7v0
		c0.5-0.7,1.3-1,2.1-1c1.8,0,2.8,1.3,2.8,3.8C109.4,14.8,109.1,15.9,108.5,16.9z M144.4,18.1c-0.5,0.2-1.1,0.3-1.7,0.3
		c-0.7,0-1.3-0.1-1.9-0.3c-0.4-0.1-0.8-0.3-1.2-0.5v-0.6l0,0c-0.2,0.1-0.3,0.2-0.5,0.3c-0.1-0.1-0.2-0.1-0.4-0.2v0.4
		c-0.7,0.3-1.4,0.5-2.2,0.5c-1,0.1-2-0.3-2.7-1.1c-1.3-1.8-1.3-4.3,0.1-6c0.7-0.8,1.8-1.2,2.8-1.1c0.7,0,1.4,0.2,2.1,0.5
		c0,0.2,0,0.4,0,0.7c0,0.5,0.1,1,0.2,1.5c0.1,0.4,0.4,0.8,0.6,1.1c0.3,0.3,0.6,0.6,1,0.9c0.5,0.3,0.9,0.5,1.4,0.7
		c0.3,0.1,0.7,0.3,1,0.4c0.3,0.1,0.7,0.2,1,0.4c0.3,0.1,0.5,0.3,0.7,0.5c0.2,0.2,0.3,0.4,0.3,0.7C145,17.6,144.7,18,144.4,18.1z"/>
	<polygon class="st0" points="89.7,6.8 89.7,6.8 89.7,6.8 	"/>
</g>
</svg>
