<svg xmlns="http://www.w3.org/2000/svg" width="12.844" height="12.87" viewBox="0 0 12.844 12.87">
  <metadata><?xpacket begin="﻿" id="W5M0MpCehiHzreSzNTczkc9d"?>
<x:xmpmeta xmlns:x="adobe:ns:meta/" x:xmptk="Adobe XMP Core 5.6-c138 79.159824, 2016/09/14-01:09:01        ">
   <rdf:RDF xmlns:rdf="http://www.w3.org/1999/02/22-rdf-syntax-ns#">
      <rdf:Description rdf:about=""/>
   </rdf:RDF>
</x:xmpmeta>
                                                                                                    
                                                                                                    
                                                                                                    
                                                                                                    
                                                                                                    
                                                                                                    
                                                                                                    
                                                                                                    
                                                                                                    
                                                                                                    
                                                                                                    
                                                                                                    
                                                                                                    
                                                                                                    
                                                                                                    
                                                                                                    
                                                                                                    
                                                                                                    
                                                                                                    
                                                                                                    
                           
<?xpacket end="w"?></metadata>
<defs>
    <style>
      .cls-1 {
        fill: #76c588;
        fill-rule: evenodd;
      }
    </style>
  </defs>
  <path id="_копия" data-name=" копия" class="cls-1" d="M741.257,1204.88a0.541,0.541,0,0,1-.377-0.16l-3-3a0.521,0.521,0,0,1-.159-0.38,0.5,0.5,0,0,1,.159-0.37l0.854-.86a0.523,0.523,0,0,1,.753,0l1.767,1.77,3.91-3.91a0.524,0.524,0,0,1,.754,0l0.854,0.85a0.537,0.537,0,0,1,.159.38,0.521,0.521,0,0,1-.159.38l-5.141,5.14A0.541,0.541,0,0,1,741.257,1204.88Zm6.8-9.26a2.333,2.333,0,0,0-1.7-.71H738.31a2.421,2.421,0,0,0-2.412,2.42v8.03a2.317,2.317,0,0,0,.708,1.7,2.293,2.293,0,0,0,1.7.71h8.038a2.294,2.294,0,0,0,1.7-.71,2.32,2.32,0,0,0,.707-1.7v-8.03A2.326,2.326,0,0,0,748.052,1195.62Z" transform="translate(-735.906 -1194.91)"/>
</svg>
