<svg xmlns="http://www.w3.org/2000/svg" width="11.782" height="11.78" viewBox="0 0 11.782 11.78">
  <metadata><?xpacket begin="﻿" id="W5M0MpCehiHzreSzNTczkc9d"?>
<x:xmpmeta xmlns:x="adobe:ns:meta/" x:xmptk="Adobe XMP Core 5.6-c138 79.159824, 2016/09/14-01:09:01        ">
   <rdf:RDF xmlns:rdf="http://www.w3.org/1999/02/22-rdf-syntax-ns#">
      <rdf:Description rdf:about=""/>
   </rdf:RDF>
</x:xmpmeta>
                                                                                                    
                                                                                                    
                                                                                                    
                                                                                                    
                                                                                                    
                                                                                                    
                                                                                                    
                                                                                                    
                                                                                                    
                                                                                                    
                                                                                                    
                                                                                                    
                                                                                                    
                                                                                                    
                                                                                                    
                                                                                                    
                                                                                                    
                                                                                                    
                                                                                                    
                                                                                                    
                           
<?xpacket end="w"?></metadata>
<defs>
    <style>
      .cls-1 {
        fill: #76c588;
        fill-rule: evenodd;
      }
    </style>
  </defs>
  <path id="_" data-name="" class="cls-1" d="M746.222,1196.38a1.29,1.29,0,0,1,.394.95v6.96a1.338,1.338,0,0,1-1.34,1.34H738.31a1.338,1.338,0,0,1-1.34-1.34v-6.96a1.338,1.338,0,0,1,1.34-1.34h6.966A1.294,1.294,0,0,1,746.222,1196.38Zm0.758-.76a2.333,2.333,0,0,0-1.7-.71H738.31a2.421,2.421,0,0,0-2.412,2.42v6.96a2.421,2.421,0,0,0,2.412,2.41h6.966a2.421,2.421,0,0,0,2.412-2.41v-6.96A2.324,2.324,0,0,0,746.98,1195.62Z" transform="translate(-735.906 -1194.91)"/>
</svg>
