<?xml version="1.0" encoding="utf-8"?>
<!-- Generator: Adobe Illustrator 21.0.2, SVG Export Plug-In . SVG Version: 6.00 Build 0)  -->
<svg version="1.1"
	 id="svg3554" xmlns:cc="http://creativecommons.org/ns#" xmlns:dc="http://purl.org/dc/elements/1.1/" xmlns:rdf="http://www.w3.org/1999/02/22-rdf-syntax-ns#" xmlns:svg="http://www.w3.org/2000/svg"
	 xmlns="http://www.w3.org/2000/svg" xmlns:xlink="http://www.w3.org/1999/xlink" x="0px" y="0px" viewBox="0 0 619.6 638.7"
	 style="enable-background:new 0 0 619.6 638.7;" xml:space="preserve">
<style type="text/css">
	.st0{fill:#1EB844;}
</style>
<g id="layer1" transform="translate(70.714287,-489.50504)">
	<path id="path3586" class="st0" d="M4.7,1124.3c-3.4,2.1-7,3.9-7.9,3.9c-0.9,0-9.5-6-19.1-13.3l-17.5-13.3l9.1-4.9
		c37.8-20.4,91.4-76.8,143-150.3c11.7-16.6,11.7-16.7,6.6-13.3c-2.4,1.6-10.4,5.9-17.7,9.7c-23.6,12-41.7,16.8-63.3,16.8
		c-22.7,0-40-6.5-55-20.6c-20.8-19.7-27.9-46.2-20.3-76.1c1.7-6.5,2.4-11.4,1.7-11.9c-17.1-11.4-31.5-33.9-34.3-53.6
		c-4.8-33,12.7-63.3,46-79.6c29.9-14.6,73-18.4,108-9.4c15.3,3.9,38.4,12.2,48.5,17.4c8.6,4.4,7.3,3-4.3-4.7
		c-23.1-15.2-41-32-52.4-49c-8.5-12.8-18.8-35.3-22.6-49.3c-6.4-23.7-4.3-47.3,5.9-65.2c8.8-15.5,26-29.1,44-34.9
		c13.5-4.3,32.7-4.6,47.6-0.7l9.8,2.6l11.1-10.6c21.6-20.6,47-28.3,74.1-22.6c24.4,5.2,46.9,24.7,57.4,50
		c10.9,26,14.8,58.7,10.2,85.1c-2.2,12.6-11.7,41.3-18.5,55.8c-2.5,5.3-4.3,9.7-4.1,9.7s2.9-4.1,5.9-9.1
		c15.2-25.3,43-56.3,61.1-68.2c25.4-16.7,58.3-27.8,82.3-27.7c19.6,0,40.1,7.4,53.5,19.3c8.3,7.3,17.3,20.9,21.4,32.3
		c2.8,7.8,3.2,10.9,3.2,24c-0.1,11.2-0.7,17.1-2.6,23.4l-2.5,8.4l11.6,11.7c9.4,9.5,12.5,13.6,16.6,22.2c11.2,23.2,9.9,48-3.7,70.7
		c-13.2,22-44.2,38.3-81.7,42.9c-41.9,5.1-80.2-4-134-31.7c-11.1-5.7-20.5-10.1-20.9-9.7s5.6,4.1,13.3,8.2
		c37.4,19.8,68.9,45.2,84.5,68.1c18.4,27.1,29.3,61.2,27.1,84.7c-3.1,32.5-27,60.1-58.5,67.5c-11.3,2.7-29.4,2.4-42.1-0.7l-10.5-2.5
		l-8.9,8.5c-15.4,14.9-26.7,21.1-44.6,24.7c-19,3.8-41.7-0.6-57.7-11.2c-24.1-16-39-47.2-42.4-88.2c-1.1-13.7-1-19.2,0.4-29
		c1-6.7,1.6-12,1.4-11.8c-0.2,0.2-7.7,12.6-16.6,27.5C93.5,1034.9,39.7,1102.4,4.7,1124.3L4.7,1124.3z M279.6,712
		c0.3,0,1.2-1.1,2-2.5s1.1-2.5,0.7-2.5s-1.2,1.1-2,2.5S279.3,712,279.6,712z M284.6,703.2c0.3,0,1.5-1.7,2.6-3.8s1.7-3.8,1.3-3.8
		s-1.5,1.7-2.6,3.8S284.3,703.2,284.6,703.2z"/>
</g>
</svg>
