<?xml version="1.0" encoding="utf-8"?>
<!-- Generator: Adobe Illustrator 21.0.2, SVG Export Plug-In . SVG Version: 6.00 Build 0)  -->
<svg version="1.1"
	 id="svg3554" xmlns:cc="http://creativecommons.org/ns#" xmlns:dc="http://purl.org/dc/elements/1.1/" xmlns:rdf="http://www.w3.org/1999/02/22-rdf-syntax-ns#" xmlns:svg="http://www.w3.org/2000/svg"
	 xmlns="http://www.w3.org/2000/svg" xmlns:xlink="http://www.w3.org/1999/xlink" x="0px" y="0px" viewBox="0 0 654 600"
	 style="enable-background:new 0 0 654 600;" xml:space="preserve">
<style type="text/css">
	.st0{fill:#1EB844;}
</style>
<path class="st0" d="M650.9,294.3c-2.7-9.7-5.3-14.8-13.2-26.3l-7.7-11.1l2.6-5.2c3.2-6.3,5-12.4,7.1-23.9
	c2.4-13.4,2.6-17.1,1.1-25.9c-2.2-12.9-9-28.4-16.5-37.8c-11.9-14.9-32-26.5-52.4-30.1c-5.6-1-11.9-1.5-18.7-1.5
	c-22.2,0-48.4,5.6-70,14.9c-14,6-33.5,19.7-50.9,35c5.1-9.6,9.6-19,11.7-24.9c9.4-26.1,11.3-60,4.9-88.4
	c-6.3-28.2-26.3-52.9-50.9-62.8C387.6,2.1,377,0,366.5,0c-17,0-33.8,5.4-49.9,16.1L306.2,23l-6.7-3.1c-11.8-5.4-26.9-8.6-40.3-8.6
	c-3.3,0-6.5,0.2-9.4,0.6c-19.8,2.7-40.4,13.9-52.5,28.5c-14,16.9-20.6,41.2-18.3,66.8c1.3,14.9,7.8,39.6,14.1,54.1
	c5.6,12.7,14.1,26,25.3,39.1c-5.9-3.2-11.8-6.1-16.9-8.5c-21.2-9.6-46.7-14.9-71.8-14.9c-14.4,0-27.7,1.7-39.6,5.2
	c-37.7,10.8-61.7,39.6-62.8,75c-0.6,20.7,9.3,45.3,24.2,60.7c-0.5,1.5-1.4,3.9-3,7.5c-13.4,29.6-10.8,59.2,7.3,83.5
	c13,17.5,30.1,27.6,53.7,31.8c7.7,1.4,14.9,2,22.1,2c13.9,0,27.9-2.4,45.5-7.7c1.2-0.4,2.4-0.7,3.7-1.1
	C118,496.2,57,541.2,17.2,554.4L0,560.1l20.1,21.8c16,17.4,17.8,17.7,19.4,18c0.3,0.1,0.6,0.1,1,0.1c2.8,0,8.5-2.2,10.1-2.9
	c39.3-15.9,103.8-72.7,172.5-152.1c2.2-2.5,4.2-4.9,6.2-7.1c-1.1,5.1-1.9,10.6-2.6,18.9c-2.6,27.8,0.7,52.4,9.6,71.9
	c0-38.8,0-91.6,0-139.2h-38.7v-69.4h38.7v-44.9c0-32.1,15.2-82.4,82.1-82.4l60.2,0.2v67.3c0,0-36.6,0-43.7,0s-17.2,3.6-17.2,18.9
	V320h62l-7.1,69.4h-55c0,73.3,0,160.8,0,187.9c17-1.1,29.2-5.7,46.4-17.3l8-5.3l7.4,3.2c11.4,5,28,8.4,40.3,8.4c1.1,0,2.2,0,3.3-0.1
	c34.3-2,64.6-26.6,73.8-60c6.6-23.8,1.6-60.5-12.2-91.5c-6.3-14.1-17.3-29.8-31.5-45.5c30.8,18,58.5,26.5,88.9,28.1
	c3.1,0.2,6.2,0.2,9.3,0.2c35.5,0,66.4-11.2,82.7-30C652.3,346.8,658.3,320.7,650.9,294.3z"/>
</svg>
