<?xml version="1.0" encoding="utf-8"?>
<!-- Generator: Adobe Illustrator 21.0.2, SVG Export Plug-In . SVG Version: 6.00 Build 0)  -->
<svg version="1.1"
	 id="svg3554" xmlns:cc="http://creativecommons.org/ns#" xmlns:dc="http://purl.org/dc/elements/1.1/" xmlns:rdf="http://www.w3.org/1999/02/22-rdf-syntax-ns#" xmlns:svg="http://www.w3.org/2000/svg"
	 xmlns="http://www.w3.org/2000/svg" xmlns:xlink="http://www.w3.org/1999/xlink" x="0px" y="0px" viewBox="0 0 654 600"
	 style="enable-background:new 0 0 654 600;" xml:space="preserve">
<style type="text/css">
	.st0{fill:#1EB844;}
</style>
<g>
	<path class="st0" d="M319.5,252l7-2.3l-9.4-54.4c-0.9-5.5-3.3-10.1-5.7-14.8c-5.6-11.5-12.7-17.5-21.2-19.8
		c-3.7-1.8-8-1.8-10.8,0.5c-5.7,3.2-8.9,8.8-9.4,17.1c-1,8.3,1.4,16.1,5.2,24.5l2.4,4.6L319.5,252z"/>
	<path class="st0" d="M240.4,235.6c-9.5-2.3-18-0.9-26.6,3.7c-9,3.7-15.2,10.7-18.5,19.6c-2.9,7-2.9,14,0.9,20.9
		c3.8,7,9.5,10.7,18.1,12.1l4.7,0.9l68.4-8.4c1.4-4.7,3.8-9.3,7.6-14l-41.8-29.8L240.4,235.6z"/>
	<path class="st0" d="M481.4,408.3c-9.6,1.6-19.5,0.6-30.2-2.7c-6.4-1.6-11.8-4.2-17.1-7.8c2.7,13.1,2.7,24.6,0,36.1
		c-3.2,11-9.6,19.9-18.7,25.2c-9.6,6.3-20.3,6.8-31,3.7c-10.7-2.6-20.3-10-30.5-21l-0.5,3.1c-4.8,15.7-14.4,28.3-29.4,36.2
		c-15.5,7.9-31.6,8.4-47.6,4.2c-9.7-2.6-17.7-6.3-24.1-12.1c-4.3-4.7-8.6-9.9-12.3-15.8c-8-15.2-9.6-29.9-4.3-46.7l2.7-6.8l9.6-15.7
		c-13.4,4.2-25.7,4.2-37.5,1.6c-6.4-0.5-11.8-3.2-16-6.8c-4.3-2.7-7-6.3-9.6-10.5c-5.3-8.9-6.4-18.4-3.7-27.8
		c2.7-7.9,6.9-15.7,14.4-22l8-6.8l-3.7-1.1c-9.6-1.6-17.7-5.2-24.1-11.5c-4.3-3.2-9.1-7.9-12.3-13.6c-7.5-13.1-8-27.3-2.2-42
		c6.4-15.2,16.1-26.2,31.6-34.1c15-7.9,30-10,46-6.3l12.8,4.2l-3.7-5.3c-8-14.7-10.6-29.4-8-44.6c2.7-14.7,9.3-25.2,20.5-32
		c10.2-5.2,20.1-6.3,31.9-3.7c13.4,3.7,24.8,11.5,33.3,24.7l11.5,18.3c0,0,2.8-31.4,31.2-45.6c15.1-7.6,24.9-9.4,41.5-5.2
		c16.1,4.2,27.8,12.1,35.8,25.2l1.5,2.6c0.1,0.1,0.1,0.3,0.2,0.4c6.3-24.2,7-52.8,1.5-77.3c-6.3-28.1-26.3-52.8-50.9-62.7
		C387.6,2.1,377,0,366.5,0c-17,0-33.8,5.4-49.9,16.1L306.2,23l-6.7-3.1c-11.8-5.4-26.9-8.6-40.3-8.6c-3.3,0-6.5,0.2-9.4,0.6
		c-19.8,2.7-40.4,13.9-52.5,28.5c-14,16.9-20.6,41.2-18.3,66.8c1.3,14.9,7.8,39.6,14.1,54.1c5.6,12.7,14.1,26,25.3,39.1
		c-5.9-3.2-11.8-6.1-16.9-8.5c-21.2-9.6-46.7-14.9-71.8-14.9c-14.4,0-27.7,1.7-39.6,5.2c-37.7,10.8-61.7,39.6-62.8,75
		c-0.6,20.7,9.3,45.3,24.2,60.7c-0.5,1.5-1.4,3.9-3,7.5c-13.4,29.6-10.8,59.2,7.3,83.5c13,17.5,30.1,27.6,53.7,31.8
		c7.7,1.4,14.9,2,22.1,2c13.9,0,27.9-2.4,45.5-7.7c1.2-0.4,2.4-0.7,3.7-1.1C118,496.2,57,541.2,17.2,554.4L0,560.1l20.1,21.8
		c16,17.4,17.8,17.7,19.4,18c0.3,0.1,0.6,0.1,1,0.1c2.8,0,8.5-2.2,10.1-2.9c39.3-15.9,103.8-72.7,172.5-152.1
		c2.2-2.5,4.2-4.9,6.2-7.1c-1.1,5.1-1.9,10.6-2.6,18.9c-4,42.5,5.9,77.4,27.9,98.3c14.4,13.7,36.6,22.5,56.7,22.5c0.6,0,1.2,0,1.8,0
		c19.4-0.5,32.2-4.9,50.9-17.5l8-5.3l7.4,3.2c11.4,5,28,8.4,40.3,8.4c1.1,0,2.2,0,3.3-0.1c34.3-2,64.6-26.6,73.8-60
		c6.6-23.8,1.6-60.5-12.2-91.5C483.7,412.7,482.6,410.5,481.4,408.3z"/>
	<path class="st0" d="M474.7,316.9l-4.6-0.4l-18.2,0.4l-51.4,4.5l-1.4,5.4l-3.2,6.7l47.7,38.8c3.2,3.5,6.8,5.8,12.3,7.1
		c2.4,0.8,4.7,1.4,7,1.6c-3.1-3.9-6.4-7.8-9.9-11.6c7.1,4.1,13.9,7.7,20.7,10.9c2.6-0.7,5.1-1.7,7.6-3.1
		c7.7-3.6,13.2-10.2,15.5-19.2l1.4-8.9c0-7.6-2.3-14.3-6.8-19.2C487.9,323.2,481.5,319.2,474.7,316.9z"/>
	<path class="st0" d="M283.5,456.6c8.7,2.3,19.2,1.4,27.9-3.4c27.4-10.9,25.9-24.2,25.9-24.2v-19c0-18.5-8.8-35.6-9.8-51.7
		c-5.3-0.5-15.1-2.9-20-5.2l-40.6,47.5c-3.9,3.8-6.2,8.5-7.2,13.3l-2.2,10.9c0,5.7,2.2,11.4,4.6,16.1
		C265.9,448.5,273.8,454.2,283.5,456.6z"/>
	<path class="st0" d="M485.5,242.6c-2.7-5.4-8.2-9-16-9.9c-8.3-0.9-16,0-24.3,3.6l-5.5,2.2l-46.2,37.7l-1.8,2.3l0.9,1.4l0.9,3.1
		l56.3-6.7c5.5-0.9,10.5-1.8,15.1-4c11.4-4.9,18.3-11.2,21.5-19.3l0.9-4.5L485.5,242.6z"/>
	<path class="st0" d="M364.5,329.1c7.5-6.3,10.7-15.2,10.7-24.7c0-9.4-3.2-17.3-10.7-24.6c-5.9-5.8-15-9.4-24.6-9.4
		c-10.2,0-18.7,3.7-25.2,9.4c-7,7.4-10.7,15.2-10.7,24.6s3.7,18.4,10.7,24.7c6.4,6.8,15,10.5,25.2,10.5
		C349.6,339.6,357.6,335.9,364.5,329.1z"/>
	<path class="st0" d="M650.9,294.3c-2.7-9.7-5.3-14.8-13.2-26.3l-7.7-11.1l2.6-5.2c3.2-6.3,5-12.4,7.1-23.9
		c2.4-13.4,2.6-17.1,1.1-25.9c-2.2-12.9-9-28.4-16.5-37.8c-11.9-14.9-32-26.5-52.4-30.1c-5.6-1-11.9-1.5-18.7-1.5
		c-22.2,0-48.4,5.6-70,14.9c-8.2,3.5-18.3,9.7-28.8,17.3c1.8,9.6,1.1,19.5-2.1,29.6l-6.5,13.1l16.5-3.7c8-0.5,14.8-0.5,22.9,1.1
		c36.5,5.6,34.8,40.9,31,52.4c-5.4,14.2-12.6,25.2-29.1,33c5.9,2.6,12.3,5.2,17.6,8.9c6.4,4.2,10.7,10.5,15,16.8l2.7,4.2
		c8,14.7,9.1,29.9,4.8,45.6c-3.2,10.8-8.6,20-16.1,27.3c10.1,2.3,20.3,3.7,30.9,4.3c3.1,0.2,6.2,0.2,9.3,0.2
		c35.5,0,66.4-11.2,82.7-30C652.3,346.8,658.3,320.7,650.9,294.3z"/>
	<path class="st0" d="M368.6,416.1c5.2,11.2,12.3,18.1,21.3,20.4c3.8,0.4,7.6,0.4,10.9-1.9c5.7-2.3,8.5-8.4,9.5-16.7
		c0.9-8.8-1.4-16.2-5.7-24.1l-2.4-4.6l-12.3-14.9L370,354.4l-6.2,3.2l-8,2.8l7.1,40.4L368.6,416.1z"/>
	<path class="st0" d="M372.7,260.9l43.6-52.2c2.9-4.3,5.3-9,7.3-14.3L425,184c0-6.2-1.4-11.9-3.9-16.6c-4.4-8.1-11.6-13.3-21.8-15.7
		c-9.2-3.3-18.9-2.4-27.6,2.4c-8.7,4.8-15.5,11.9-17.9,21.4l-0.5,4.8l0.5,19l4.8,53.7C363.5,255.2,368.3,257.6,372.7,260.9z"/>
</g>
</svg>
