<?xml version="1.0" encoding="utf-8"?>
<!-- Generator: Adobe Illustrator 21.0.2, SVG Export Plug-In . SVG Version: 6.00 Build 0)  -->
<svg version="1.1"
	 id="svg3554" xmlns:cc="http://creativecommons.org/ns#" xmlns:dc="http://purl.org/dc/elements/1.1/" xmlns:rdf="http://www.w3.org/1999/02/22-rdf-syntax-ns#" xmlns:svg="http://www.w3.org/2000/svg"
	 xmlns="http://www.w3.org/2000/svg" xmlns:xlink="http://www.w3.org/1999/xlink" x="0px" y="0px" viewBox="0 0 654 600"
	 style="enable-background:new 0 0 654 600;" xml:space="preserve">
<style type="text/css">
	.st0{fill:#1EB844;}
</style>
<g>
	<path class="st0" d="M336.6,373.2c-27.1,0-40.6-9.6-40.6-13.5c-1.1-10.5-9.7-18.6-20.3-18.9c-11.2,0-20.3,9.1-20.3,20.3
		c0,30,34.9,52.8,81.2,52.8c45.5,0,81.2-27.1,81.2-60.9c0-52.1-46.8-64.7-77.8-72.9c-36.1-9.7-44-15-44-28.6
		c0-4.2,12.7-13.5,33.8-13.5c11.9-0.7,23.7,2.3,33.8,8.7c0.5,11.2,10,19.9,21.2,19.4s19.9-10,19.4-21.2c0-27.1-32.7-47.4-74.4-47.4
		s-74.4,23.8-74.4,54.1c0,47.9,42.8,59.4,74.2,67.8c39.1,10.6,47.6,16.5,47.6,33.7C377.2,361.1,361.3,373.2,336.6,373.2z"/>
	<path class="st0" d="M484.3,424c-28,44.2-86.5,57.3-130.7,29.3c-5.7,0.7-11.4,1.1-17.1,1.1c-82.2,0-148.9-66.6-148.9-148.9
		c0-5.7,0.4-11.4,1.1-17.1c-19.6-31-19.6-70.5,0-101.4l0.1-0.1c-18.3-6.4-38.9-9.9-59.2-9.9c-14.4,0-27.7,1.7-39.6,5.2
		c-37.7,10.8-61.7,39.6-62.8,75c-0.6,20.7,9.3,45.3,24.2,60.7c-0.5,1.5-1.4,3.9-3,7.5C35,355,37.6,384.6,55.7,408.9
		c13,17.5,30.1,27.6,53.7,31.8c7.7,1.4,14.9,2,22.1,2c13.9,0,27.9-2.4,45.5-7.7c1.2-0.4,2.4-0.7,3.7-1.1
		C118,496.2,57,541.2,17.2,554.4L0,560.1l20.1,21.8c16,17.4,17.8,17.7,19.4,18c0.3,0.1,0.6,0.1,1,0.1c2.8,0,8.5-2.2,10.1-2.9
		c39.3-15.9,103.8-72.7,172.5-152.1c2.2-2.5,4.2-4.9,6.2-7.1c-1.1,5.1-1.9,10.6-2.6,18.9c-4,42.5,5.9,77.4,27.9,98.3
		c14.4,13.7,36.6,22.5,56.7,22.5c0.6,0,1.2,0,1.8,0c19.4-0.5,32.2-4.9,50.9-17.5l8-5.3l7.4,3.2c11.4,5,28,8.4,40.3,8.4
		c1.1,0,2.2,0,3.3-0.1c34.3-2,64.6-26.6,73.8-60c6.2-22.5,2.1-56.5-10-86.4C486,421.3,485.2,422.6,484.3,424z"/>
	<path class="st0" d="M650.9,294.3c-2.7-9.7-5.3-14.8-13.2-26.3l-7.7-11.1l2.6-5.2c3.2-6.3,5-12.4,7.1-23.9
		c2.4-13.4,2.6-17.1,1.1-25.9c-2.2-12.9-9-28.4-16.5-37.8c-11.9-14.9-32-26.5-52.4-30.1c-5.6-1-11.9-1.5-18.7-1.5
		c-22.2,0-48.4,5.6-70,14.9c-14,6-33.5,19.7-50.9,35c5.1-9.6,9.6-19,11.7-24.9c9.4-26.1,11.3-60,4.9-88.4
		c-6.3-28.2-26.3-52.9-50.9-62.8C387.6,2.1,377,0,366.5,0c-17,0-33.8,5.4-49.9,16.1L306.2,23l-6.7-3.1c-11.8-5.4-26.9-8.6-40.3-8.6
		c-3.3,0-6.5,0.2-9.4,0.6c-19.8,2.7-40.4,13.9-52.5,28.5c-14,16.9-20.6,41.2-18.3,66.8c1.3,14.9,7.8,39.6,14.1,54.1
		c1.8,4,3.8,8,6.1,12.1c30.4-33,81-40.6,120.3-15.7c5.7-0.7,11.4-1.1,17.1-1.1c82.2,0,148.9,66.6,148.9,148.9
		c0,5.7-0.4,11.4-1.1,17.1c12.8,20.3,17.3,44.2,13.3,66.9c14.6,4.6,29.1,7.1,44.3,7.9c3.1,0.2,6.2,0.2,9.3,0.2
		c35.5,0,66.4-11.2,82.7-30C652.3,346.8,658.3,320.7,650.9,294.3z"/>
</g>
</svg>
