<?xml version="1.0" encoding="utf-8"?>
<!-- Generator: Adobe Illustrator 21.0.2, SVG Export Plug-In . SVG Version: 6.00 Build 0)  -->
<svg version="1.1"
	 id="svg3554" xmlns:cc="http://creativecommons.org/ns#" xmlns:dc="http://purl.org/dc/elements/1.1/" xmlns:rdf="http://www.w3.org/1999/02/22-rdf-syntax-ns#" xmlns:svg="http://www.w3.org/2000/svg"
	 xmlns="http://www.w3.org/2000/svg" xmlns:xlink="http://www.w3.org/1999/xlink" x="0px" y="0px" viewBox="0 0 654 600"
	 style="enable-background:new 0 0 654 600;" xml:space="preserve">
<style type="text/css">
	.st0{fill:#1EB844;}
</style>
<g>
	<path class="st0" d="M343,264.7c8,0,14.6,6.7,14.6,15c0,4.1,3.3,7.5,7.3,7.5s7.3-3.3,7.3-7.5c0-16.5-13-29.9-29.1-29.9
		c-4,0-7.3,3.3-7.3,7.5C335.8,261.3,339,264.7,343,264.7z"/>
	<path class="st0" d="M313.2,239c-5.9-11.7-14.6-30-14.6-30c-1.2-2.6-3.8-4.2-6.6-4.2h-14.6c-21.3,3.7-36.7,22.7-36.4,44.9
		c0,23.5,27.5,68.5,45.9,87.5s62.4,47.1,85.2,47.1c21.6,0.3,40.1-15.6,43.7-37.4l-0.1-15c0-2.9-1.6-5.5-4.1-6.7l-29.1-15
		c-2.4-1.3-5-1.9-7.7-1.9c-10.3,1.6-19.8,6.9-26.7,15c-10.8-4.3-20.8-10.7-29.1-19c-8-8.6-14.3-18.8-18.5-29.9
		C307.5,267.2,319,250.6,313.2,239z"/>
	<path class="st0" d="M193.1,161.3c4,9,9.4,18.3,16.3,27.7c30.6-39.3,83.3-44,133.7-44c34.7,0,70.5,2.2,99.4,16.4
		c0.6-1.4,1.1-2.7,1.5-3.9c9.4-26.1,11.3-60,4.9-88.4c-6.3-28.2-26.3-52.9-50.9-62.8C387.6,2.1,377,0,366.5,0
		c-17,0-33.8,5.4-49.9,16.1L306.2,23l-6.7-3.1c-11.8-5.4-26.9-8.6-40.3-8.6c-3.3,0-6.5,0.2-9.4,0.6c-19.8,2.7-40.4,13.9-52.5,28.5
		c-14,16.9-20.6,41.2-18.3,66.8C180.3,122.1,186.8,146.8,193.1,161.3z"/>
	<path class="st0" d="M650.9,294.3c-2.7-9.7-5.3-14.8-13.2-26.3l-7.7-11.1l2.6-5.2c3.2-6.3,5-12.4,7.1-23.9
		c2.4-13.4,2.6-17.1,1.1-25.9c-2.2-12.9-9-28.4-16.5-37.8c-11.9-14.9-32-26.5-52.4-30.1c-5.6-1-11.9-1.5-18.7-1.5
		c-22.2,0-48.4,5.6-70,14.9c-8.9,3.8-20,10.7-31.4,19.2c30.6,19.1,51.5,54.6,51.5,120.5c0,43.8-9.3,74.2-24.5,95.3
		c21.1,9.1,41.4,13.8,63.1,15c3.1,0.2,6.2,0.2,9.3,0.2c35.5,0,66.4-11.2,82.7-30C652.3,346.8,658.3,320.7,650.9,294.3z"/>
	<path class="st0" d="M471.2,391.8c-31.2,33.4-80.7,37.5-128.2,37.5h-16.4l-31.9,37c-4.2,4.9-10.3,7.8-16.6,7.8
		c-12.3,0.1-22.4-10.1-22.4-22.8v-33.7c-49-18.3-72.8-61-72.8-130.5c0-42.4,8.7-72.2,23-93.2c-1.5-0.7-2.9-1.4-4.2-2
		c-21.2-9.6-46.7-14.9-71.8-14.9c-14.4,0-27.7,1.7-39.6,5.2c-37.7,10.8-61.7,39.6-62.8,75c-0.6,20.7,9.3,45.3,24.2,60.7
		c-0.5,1.5-1.4,3.9-3,7.5C35.3,355,37.9,384.6,56,408.9c13,17.5,30.1,27.6,53.7,31.8c7.7,1.4,14.9,2,22.1,2
		c13.9,0,27.9-2.4,45.5-7.7c1.2-0.4,2.4-0.7,3.7-1.1C118,496.2,57,541.2,17.2,554.4L0,560.1l20.1,21.8c16,17.4,17.8,17.7,19.4,18
		c0.3,0.1,0.6,0.1,1,0.1c2.8,0,8.5-2.2,10.1-2.9c39.3-15.9,103.8-72.7,172.5-152.1c2.2-2.5,4.2-4.9,6.2-7.1
		c-1.1,5.1-1.9,10.6-2.6,18.9c-4,42.5,5.9,77.4,27.9,98.3c14.4,13.7,36.6,22.5,56.7,22.5c0.6,0,1.2,0,1.8,0
		c19.4-0.5,32.2-4.9,50.9-17.5l8-5.3l7.4,3.2c11.4,5,28,8.4,40.3,8.4c1.1,0,2.2,0,3.3-0.1c34.3-2,64.6-26.6,73.8-60
		c6.6-23.8,1.6-60.5-12.2-91.5C481.3,407.5,476.8,399.7,471.2,391.8z"/>
	<path class="st0" d="M343,234.8c24.1,0,43.7,20.1,43.7,44.9c0,4.1,3.3,7.5,7.3,7.5s7.3-3.3,7.3-7.5c0-33-26.1-59.8-58.3-59.8
		c-4,0-7.3,3.3-7.3,7.5C335.8,231.4,339,234.8,343,234.8z"/>
	<path class="st0" d="M423.2,287.1c4,0,7.3-3.3,7.3-7.5c0-49.6-39.1-89.8-87.4-89.8c-4,0-7.3,3.3-7.3,7.5c0,4.1,3.3,7.5,7.3,7.5
		c40.2,0,72.8,33.5,72.8,74.8C415.9,283.8,419.1,287.1,423.2,287.1z"/>
</g>
</svg>
