<?xml version="1.0" encoding="utf-8"?>
<!-- Generator: Adobe Illustrator 21.0.2, SVG Export Plug-In . SVG Version: 6.00 Build 0)  -->
<svg version="1.1"
	 id="svg3554" xmlns:cc="http://creativecommons.org/ns#" xmlns:dc="http://purl.org/dc/elements/1.1/" xmlns:rdf="http://www.w3.org/1999/02/22-rdf-syntax-ns#" xmlns:svg="http://www.w3.org/2000/svg"
	 xmlns="http://www.w3.org/2000/svg" xmlns:xlink="http://www.w3.org/1999/xlink" x="0px" y="0px" viewBox="0 0 654 600"
	 style="enable-background:new 0 0 654 600;" xml:space="preserve">
<style type="text/css">
	.st0{fill:#1EB844;}
</style>
<g>
	<path class="st0" d="M196.4,462.2c-0.8,0.1-1.5,0.1-2.3,0c-1,0.1-2-0.1-2.9-0.4c-3.5-1.4-5.2-5.3-3.9-8.8l25.7-65.5
		c-16.8-26.2-25.7-56.6-25.7-87.6c0-89.6,72.7-162.3,162.3-162.3c30,0.1,59.4,8.4,84.9,24.2c2,1.3,4,2.6,6,3.9
		c1.4-3.1,2.6-6,3.4-8.3c9.4-26.1,11.3-60,4.9-88.4c-6.2-28.1-26.2-52.8-50.8-62.7C387.6,2.1,377,0,366.5,0
		c-17,0-33.8,5.4-49.9,16.1L306.2,23l-6.7-3.1c-11.8-5.4-26.9-8.6-40.3-8.6c-3.3,0-6.5,0.2-9.4,0.6c-19.8,2.7-40.4,13.9-52.5,28.5
		c-14,16.9-20.6,41.2-18.3,66.8c1.3,14.9,7.8,39.6,14.1,54.1c5.6,12.7,14.1,26,25.3,39.1c-5.9-3.2-11.8-6.1-16.9-8.5
		c-21.2-9.6-46.7-14.9-71.8-14.9c-14.4,0-27.7,1.7-39.6,5.2c-37.7,10.8-61.7,39.6-62.8,75c-0.6,20.7,9.3,45.3,24.2,60.7
		c-0.5,1.5-1.4,3.9-3,7.5c-13.4,29.6-10.8,59.2,7.3,83.5c13,17.5,30.1,27.6,53.7,31.8c7.7,1.4,14.9,2,22.1,2
		c13.9,0,27.9-2.4,45.5-7.7c1.2-0.4,2.4-0.7,3.7-1.1C118,496.2,57,541.2,17.2,554.4L0,560.1l20.1,21.8c16,17.4,17.8,17.7,19.4,18
		c0.3,0.1,0.6,0.1,1,0.1c2.8,0,8.5-2.2,10.1-2.9C88,582,148.3,529.7,213.3,456.2L196.4,462.2z"/>
	<path class="st0" d="M335.4,249.6c-5.4-10.5-13.5-27-13.5-27c-1.1-2.3-3.5-3.8-6.1-3.8h-13.5c-19.7,3.3-34.1,20.6-33.8,40.6
		c0,21.2,25.6,61.9,42.6,79.1s57.9,42.6,79.1,42.6c20,0.3,37.2-14.1,40.6-33.8l-0.1-13.5c0-2.6-1.5-4.9-3.8-6.1
		c0,0-16.6-8.2-27-13.5c-2.2-1.1-4.7-1.8-7.2-1.8c-9.6,1.4-18.4,6.2-24.7,13.5c-10.1-3.9-19.3-9.7-27-17.2c-7.5-7.8-13.3-17-17.2-27
		C330.2,275.2,340.9,260.2,335.4,249.6z"/>
	<path class="st0" d="M650.9,294.3c-2.7-9.7-5.3-14.8-13.2-26.3l-7.7-11.1l2.6-5.2c3.2-6.3,5-12.4,7.1-23.9
		c2.4-13.4,2.6-17.1,1.1-25.9c-2.2-12.9-9-28.4-16.5-37.8c-11.9-14.9-32-26.5-52.4-30.1c-5.6-1-11.9-1.5-18.7-1.5
		c-22.2,0-48.4,5.6-70,14.9c-10.2,4.4-23.2,12.8-36.3,22.9c66.3,49.8,84.9,142.9,40.5,214.9c-0.1,0.2-0.2,0.4-0.4,0.6
		c18.2,7,36.1,10.6,55,11.6c3.1,0.2,6.2,0.2,9.3,0.2c35.5,0,66.4-11.2,82.7-30C652.3,346.8,658.3,320.7,650.9,294.3z"/>
	<path class="st0" d="M476.8,400.3C426.5,464.4,335,481.8,264,438l-36.8,13.2c-0.2,1.7-0.4,3.6-0.5,5.6c-4,42.5,5.9,77.4,27.9,98.3
		c14.4,13.7,36.6,22.5,56.7,22.5c0.6,0,1.2,0,1.8,0c19.4-0.5,32.2-4.9,50.9-17.5l8-5.3l7.4,3.2c11.4,5,28,8.4,40.3,8.4
		c1.1,0,2.2,0,3.3-0.1c34.3-2,64.6-26.6,73.8-60c6.6-23.8,1.6-60.5-12.2-91.5C482.5,410.1,479.9,405.3,476.8,400.3z"/>
</g>
</svg>
