<?xml version="1.0" ?><svg height="512" id="Layer_1" version="1.1" viewBox="0 0 512 512" width="512" xml:space="preserve" xmlns="http://www.w3.org/2000/svg" xmlns:cc="http://creativecommons.org/ns#" xmlns:dc="http://purl.org/dc/elements/1.1/" xmlns:inkscape="http://www.inkscape.org/namespaces/inkscape" xmlns:rdf="http://www.w3.org/1999/02/22-rdf-syntax-ns#" xmlns:sodipodi="http://sodipodi.sourceforge.net/DTD/sodipodi-0.dtd" xmlns:svg="http://www.w3.org/2000/svg"><defs id="defs12"/><g id="g5111"><rect height="512" id="rect2987" style="fill:#55f255;fill-opacity:1;fill-rule:nonzero;stroke:none" width="512" x="0" y="5.6843419e-014"/><path d="m 444.59357,275.55593 -2.8205,-4.51024 c -4.5128,-6.76925 -9.0191,-13.5385 -15.7897,-18.04482 -5.6331,-3.94873 -12.4038,-6.76796 -18.6063,-9.58978 17.4846,-8.46157 29.8884,-20.30124 35.5295,-35.53076 3.9487,-12.409 2.8192,-22.55766 -2.8192,-32.71154 v -1.1269 c -6.7628,-11.28209 -15.7885,-18.61545 -29.8846,-22.55768 -8.4615,-1.691 -18.0487,-1.691 -26.5064,-1.1295 l -18.6102,3.95004 6.2065,-14.09611 c 5.641,-18.04352 3.9487,-35.53076 -5.6411,-51.881966 l -1.6923,-2.82182 c -8.4602,-14.10262 -20.8653,-22.55898 -37.7806,-27.06921 -17.4834,-4.51413 -33.8333,-2.82051 -49.6309,5.64105 -15.7858,8.45375 -27.0665,21.42816 -32.1382,38.351286 v 1.12951 l -0.5654,3.94612 -2.2551,-3.94612 -5.6411,-10.153876 c -9.0309,-14.07916 -20.3117,-22.53943 -34.4078,-26.48815 -12.4064,-2.82052 -22.5589,-1.69362 -33.2691,3.94872 -11.8461,7.33075 -18.6167,18.61284 -21.4373,34.402556 -2.8205,16.35121 0,32.14744 8.4616,47.93324 l 3.9501,5.63584 -13.5386,-4.51023 c -16.9166,-3.95134 -32.7102,-1.69362 -48.499903,6.76794 -16.3512,8.46026 -26.5064,20.29994 -33.27439,36.65897 -6.2051,15.79362 -5.6371,31.01923 2.2565,45.11403 3.38459,6.20515 8.46019,11.27557 12.96909,14.6602 6.7667,6.76795 15.2282,10.71799 25.375703,12.40378 l 3.9513,1.12821 -8.4616,7.33596 c -7.897503,6.76535 -12.403803,15.2217 -15.225603,23.68196 -2.8206,10.15389 -1.6923,20.30256 3.9474,29.89233 2.8205,4.50632 5.6358,8.45505 10.1474,11.27427 4.512803,3.94873 10.152503,6.76925 16.916603,7.32815 12.4102,2.82183 25.3795,2.82183 39.4743,-1.70013 l -10.1526,16.91792 -2.8205,7.33726 c -5.6358,18.04744 -3.9501,33.84367 4.5115,50.18706 3.9487,6.20515 8.4616,11.85141 12.9744,16.91793 6.7679,6.20254 15.2256,10.15126 25.3769,12.97309 16.9153,4.50632 33.8397,3.94873 50.1923,-4.50762 15.7936,-8.46547 25.9422,-21.99877 31.0179,-38.92191 l 0.5653,-3.38463 c 10.7102,11.85272 20.8654,19.74235 32.1475,22.56158 11.2743,3.38723 22.5564,2.82052 32.7089,-3.94873 9.5898,-5.64105 16.3539,-15.22822 19.7373,-27.0705 2.8205,-12.40899 2.8205,-24.81148 0,-38.90757 5.6331,3.94742 11.2742,6.75883 18.046,8.45505 18.0448,5.64104 33.8345,5.07173 49.6269,-3.38463 15.2295,-8.45505 25.3768,-22.00007 30.4538,-39.48079 4.5155,-16.91532 3.3872,-33.26393 -5.0757,-49.05884 z m -81.7612,-94.16636 6.7614,-2.81531 c 10.1552,-4.51153 19.7385,-5.63974 29.8911,-4.51153 9.5897,1.12821 16.359,5.63452 19.7345,12.40378 l 2.259,7.32815 -1.1295,5.64103 c -3.9487,10.15388 -12.409,18.04484 -26.5064,24.24868 -5.6333,2.82182 -11.8397,3.95003 -18.609,5.07303 l -69.364,8.46157 -1.1281,-3.94873 -1.1257,-1.6858 2.2538,-2.82052 56.9629,-47.37435 z m -95.8717,-71.04459 c 2.8218,-11.275566 10.7128,-19.734536 20.8667,-25.376876 10.1486,-5.63454 21.4294,-6.76796 32.1395,-2.82052 11.8463,2.814 20.3092,9.01786 25.3847,18.602406 2.8192,5.63454 4.5116,12.40509 4.5116,19.73714 l -1.6924,12.40378 c -2.2538,6.20515 -5.0755,11.8449 -8.4602,16.91532 l -50.7577,62.04368 c -5.0756,-3.94874 -10.7167,-6.76926 -16.3577,-9.58978 l -5.6345,-63.72426 -0.5654,-22.55766 0.5654,-5.63323 z m -96.441,1.6871 c 0.5641,-10.15518 4.5141,-16.916616 11.2769,-20.866636 3.382,-2.82053 8.4616,-2.82053 12.9666,-0.56281 10.1552,2.82052 18.6102,10.152566 25.3795,24.249966 2.8205,5.63974 5.6409,11.27558 6.7678,18.04353 l 11.2782,66.55129 -8.4615,2.82183 -50.1923,-54.70641 -2.8205,-5.63323 c -4.5011,-10.16039 -7.3216,-19.74495 -6.1947,-29.89753 z M 87.622367,231.59355 c -4.5115,-8.46155 -4.5115,-16.9166 -1.1269,-25.37817 3.9474,-10.71669 11.2743,-19.17826 21.992203,-23.68458 10.1488,-5.64755 20.2974,-7.33986 31.5782,-4.51934 l 15.2282,6.20515 49.6282,36.09616 c -4.5128,5.63454 -7.3283,11.27557 -9.0192,16.91532 l -81.2088,10.15257 -5.6412,-1.1282 C 98.900567,244.56014 92.136467,240.04991 87.622367,231.59355 z m 156.775403,166.36912 -0.5654,5.64105 c -3.9474,10.13955 -10.718,18.60241 -20.8653,23.11656 -10.1487,5.64104 -20.8653,6.76534 -31.018,3.94612 -11.2755,-2.8062 -19.7358,-9.57675 -24.2512,-18.60111 -2.8206,-5.63975 -5.0757,-12.4077 -5.0757,-19.18085 l 2.8205,-12.96007 c 1.1296,-5.63975 3.9501,-11.28861 8.4616,-15.79624 l 47.3717,-56.39871 c 5.6411,2.8114 11.2744,5.63323 17.4795,6.19863 1.1295,19.17564 2.8205,39.47819 5.641,61.47305 v 22.56157 z m -18.6102,-112.79743 c -7.3321,-6.77056 -11.2743,-16.35902 -11.2743,-26.5077 0,-10.14606 3.9422,-18.60893 11.2743,-26.5077 6.7628,-6.20384 15.7897,-10.14605 26.5064,-10.14605 10.1552,0 19.7385,3.94742 25.9422,10.14605 7.8976,7.89877 11.2809,16.36164 11.2809,26.5077 0,10.14868 -3.3847,19.73584 -11.2809,26.5077 -7.332,7.32815 -15.7896,11.27427 -25.9422,11.27427 -10.7167,0 -19.7423,-3.94612 -26.5064,-11.27427 z m 104.3345,98.69743 c -1.1294,10.15388 -4.5153,17.48203 -11.2781,20.30124 -3.9474,2.82052 -8.4603,2.82052 -12.9679,2.2486 -10.7179,-2.80749 -19.1795,-11.27296 -25.3769,-24.81277 l -6.7706,-18.60372 -8.4602,-49.06666 9.5898,-3.38724 7.3268,-3.94873 23.6859,24.25128 14.6614,18.04353 2.8193,5.64365 c 5.0757,9.58717 7.8962,18.61153 6.7705,29.33082 z m 97.0025,-65.99631 c -2.8205,11.2886 -9.5897,19.74366 -19.1795,24.25127 -10.1526,5.63975 -20.2999,6.76796 -31.582,2.81923 -6.7693,-1.6871 -11.2769,-4.50632 -15.2308,-9.01394 l -59.2154,-49.06667 3.9474,-8.45765 1.6989,-6.77448 63.7295,-5.63452 22.5589,-0.56411 5.6411,0.56411 c 8.4577,2.82052 16.3577,7.89746 20.8628,16.35382 5.6358,6.20254 8.4563,14.6602 8.4563,24.24737 l -1.6872,11.27557 z" id="path9-16" style="fill:#ffffff"/></g></svg>