<?xml version="1.0" encoding="utf-8"?>
<!-- Generator: Adobe Illustrator 21.0.2, SVG Export Plug-In . SVG Version: 6.00 Build 0)  -->
<svg version="1.1"
	 id="Layer_1" xmlns:cc="http://creativecommons.org/ns#" xmlns:dc="http://purl.org/dc/elements/1.1/" xmlns:inkscape="http://www.inkscape.org/namespaces/inkscape" xmlns:rdf="http://www.w3.org/1999/02/22-rdf-syntax-ns#" xmlns:sodipodi="http://sodipodi.sourceforge.net/DTD/sodipodi-0.dtd" xmlns:svg="http://www.w3.org/2000/svg"
	 xmlns="http://www.w3.org/2000/svg" xmlns:xlink="http://www.w3.org/1999/xlink" x="0px" y="0px" viewBox="0 0 512 512"
	 style="enable-background:new 0 0 512 512;" xml:space="preserve">
<style type="text/css">
	.st0{fill:#7B519D;}
	.st1{fill:#FFFFFF;}
</style>
<g id="g4780">
	<path id="rect2987" class="st0" d="M30,0h452c16.6,0,30,13.4,30,30v452c0,16.6-13.4,30-30,30H30c-16.6,0-30-13.4-30-30V30
		C0,13.4,13.4,0,30,0z"/>
	<g id="g15" transform="matrix(1.452588,0,0,1.452588,-115.17955,-97.147891)">
		<path id="path17-6" class="st1" d="M369.8,304.7c-8.4-6.8-17.4-12.8-26.2-19c-17.6-12.4-33.7-13.3-46.9,6.6
			c-7.4,11.2-17.7,11.7-28.5,6.8c-29.8-13.5-52.8-34.3-66.3-64.6c-6-13.4-5.9-25.4,8.1-34.9c7.4-5,14.8-10.9,14.2-21.9
			c-0.8-14.3-35.4-62-49.1-67c-5.7-2.1-11.3-1.9-17.1,0c-32.1,10.8-45.4,37.2-32.7,68.4c38,93.2,104.8,158.2,196.8,197.8
			c4.2,1.8,8.8,2.8,12,3.5c1.7,0.4,3.5,0.5,5.3,0.4c20.2-1.7,42.6-20.9,49.3-39.9C395.6,321.5,381.2,313.9,369.8,304.7L369.8,304.7z
			"/>
		<path id="path19-1" class="st1" d="M266.6,120.2c67.3,10.3,98.3,42.3,106.9,110.1c0.8,6.3-1.5,15.7,7.4,15.8
			c9.3,0.2,7.1-9.1,7.2-15.4c0.8-63.3-54-122.1-118-125.1c-0.7,0-1.4,0-2.1,0c-5.1,0.3-14.3-2.9-14.9,7.5
			C252.5,120.5,261,119.3,266.6,120.2L266.6,120.2z"/>
		<path id="path21-2" class="st1" d="M279.7,138.8c-6.5-0.8-15-3.8-16.5,5.1c-1.6,9.4,7.9,8.5,14.1,9.8c41.5,9.3,56,24.4,62.8,65.6
			c1,6-1,15.4,9.2,13.8c7.3-1.1,5-8.5,5.4-13.2c0-0.4,0.1-0.8,0.1-1.2C354.8,179.4,321,143.7,279.7,138.8L279.7,138.8z"/>
		<path id="path23" class="st1" d="M283.6,171.1c-4.3,0.1-8.6,0.6-10.1,5.2c-2.4,6.9,2.6,8.5,7.7,9.4c17,2.7,26,12.8,27.7,29.8
			c0.5,4.6,3.4,8.4,7.8,7.8c6.2-0.7,6.7-6.2,6.5-11.5C323.6,192.7,302,170.7,283.6,171.1L283.6,171.1z"/>
	</g>
</g>
</svg>
