<?xml version="1.0" encoding="utf-8"?>
<!-- Generator: Adobe Illustrator 21.0.2, SVG Export Plug-In . SVG Version: 6.00 Build 0)  -->
<svg version="1.1"
	 id="svg3554" inkscape:version="0.91 r13725" sodipodi:docname="Р РµСЃСѓСЂСЃ 10.svg" xmlns:cc="http://creativecommons.org/ns#" xmlns:dc="http://purl.org/dc/elements/1.1/" xmlns:inkscape="http://www.inkscape.org/namespaces/inkscape" xmlns:rdf="http://www.w3.org/1999/02/22-rdf-syntax-ns#" xmlns:sodipodi="http://sodipodi.sourceforge.net/DTD/sodipodi-0.dtd" xmlns:svg="http://www.w3.org/2000/svg"
	 xmlns="http://www.w3.org/2000/svg" xmlns:xlink="http://www.w3.org/1999/xlink" x="0px" y="0px" viewBox="0 0 617.5 428.1"
	 style="enable-background:new 0 0 617.5 428.1;" xml:space="preserve">
<style type="text/css">
	.st0{fill:#3AD861;}
</style>
<sodipodi:namedview  bordercolor="#666666" borderopacity="1.0" fit-margin-bottom="0" fit-margin-left="0" fit-margin-right="0" fit-margin-top="0" id="base" inkscape:current-layer="layer1" inkscape:cx="47.142858" inkscape:cy="597.14288" inkscape:document-units="px" inkscape:pageopacity="0.0" inkscape:pageshadow="2" inkscape:window-height="962" inkscape:window-maximized="1" inkscape:window-width="1280" inkscape:window-x="-8" inkscape:window-y="-8" inkscape:zoom="0.35" pagecolor="#ffffff" showgrid="false" units="px">
	</sodipodi:namedview>
<g id="layer1" transform="translate(70.714287,-489.50504)" inkscape:groupmode="layer" inkscape:label="Layer 1">
	<path id="path3599" inkscape:connector-curvature="0" class="st0" d="M65.9,916c-13.1-4.3-24.4-14.6-30.8-28.1
		c-3.5-7.3-3.9-9.5-3.9-19.1l0-10.9l-21.5-0.4c-19.1-0.3-21.8-0.7-24.1-2.8c-3.6-3.2-3.6-10.8,0-14c2.4-2.2,5.2-2.4,30.2-2.8
		l27.6-0.4l4.9-4.4c2.7-2.4,8.1-5.9,11.9-7.7c6-2.8,8.7-3.3,18.9-3.3c10.9,0,12.6,0.3,20.1,4.1c10.3,5.1,18.7,13.9,24,25
		c3.4,7.2,4,9.8,4,18.4c0,8.6-0.5,11.1-4,18.5c-5,10.6-14.7,20.5-24.7,25.3C89.7,917.7,74.7,918.9,65.9,916L65.9,916z M88.4,897.3
		c8.4-2.5,13.3-6.6,16.7-13.8c6-12.9,3.1-28.8-6.6-36.8c-14.2-11.7-38.3-6.9-45.6,9.1c-3.5,7.6-3.2,21.2,0.5,28.3
		C59.8,896.1,74.3,901.6,88.4,897.3L88.4,897.3z M342.2,916.1c-13-4.3-25.5-15.3-31.4-28c-2.9-6.1-3.4-8.8-3.4-18.4
		c0-10.2,0.4-12,4.1-19.7c5-10.2,13.8-19.1,23.6-24.1c6.6-3.3,8.4-3.7,19.8-3.7c11.1,0,13.3,0.4,19.4,3.4c3.8,1.9,9.2,5.4,12.1,7.8
		l5.2,4.4h68.3h68.3l-0.4-11.6l-0.4-11.6l-259.4-0.3L8.7,814l-2.8-3.2l-2.8-3.2V757v-50.6l3.1-3.1c3.9-3.9,9.4-4,13-0.2
		c2.7,2.9,2.7,3.4,2.7,47.5v44.6h146.9h146.9v-99.8c0-54.9,0.4-119.3,0.8-143.1l0.8-43.3l-136.1,0c-74.9,0-161.1-0.4-191.7-0.8
		c-51.5-0.8-55.7-1-57.8-3.1c-3.5-3.5-3-10.3,0.9-13.4c3.2-2.5,4.1-2.5,200.3-1.8c196.4,0.7,197.1,0.7,199.9,3.3
		c2.7,2.5,2.8,3.2,2.8,28v25.4H358c18.8,0,23.2,0.4,27,2.2c3.3,1.6,18,17.7,51.3,56.1c43.2,49.8,47.1,54,51.4,54.7
		c12.8,2,27.3,13.9,34.3,28l4.1,8.4l0.4,49.6l0.4,49.6l5,2.3c6.5,2.9,13.3,10.5,14.3,16c0.4,2.4,0.6,9.9,0.4,16.7
		c-0.4,11.2-0.8,12.8-3.8,16.9c-1.9,2.5-5.5,5.8-8.1,7.4l-4.7,2.9l-63.8,0.6l-63.8,0.6l-0.1,11.9c0,10.5-0.5,12.7-3.7,19.1
		c-8.2,16.5-24.3,27.2-41.8,27.9C351.2,917.6,345.4,917.1,342.2,916.1L342.2,916.1z M365.2,897.2c16.5-4.9,24.2-25.7,15.6-42
		c-6.4-12-20.7-17.5-35.2-13.6c-8.1,2.2-16.7,11.3-18.7,19.9C321,885.8,340.9,904.4,365.2,897.2L365.2,897.2z M507.5,792.5
		c0.4-1.5,0.5-13.7,0.3-27.1l-0.4-24.3l-6.9-2.2c-3.8-1.2-11.8-3.7-17.9-5.6c-13.8-4.2-17.3-7.4-20.1-18.5
		c-2.9-11.7-2.7-15,1.6-19.8l3.6-4.1l14.2-0.4c12.7-0.4,14.6-0.1,17.3,2.1c2.6,2.1,2.9,2.9,1.8,6c-1.2,3.5-1.4,3.6-14.1,4.3
		c-7.1,0.4-13.1,1-13.3,1.3c-0.8,0.8,2.1,11.6,3.6,13.1c0.8,0.8,7.2,3.2,14.4,5.4c7.2,2.2,13.8,4.3,14.8,4.7
		c1.6,0.6,1.8-1.4,1.3-14.2c-0.6-16.3-2.4-21.7-9.3-28.3c-7.7-7.3-7.5-7.3-72.3-7.3c-65,0-64.2,0.1-71.3-7.4l-3.8-4l-0.4-41
		c-0.4-50.9-2.2-46.7,20.2-47.6l15.7-0.6l-5.1-6l-5.1-6l-20.2,0.3l-20.2,0.3l-0.3,114.7l-0.3,114.7h85.6h85.6L507.5,792.5
		L507.5,792.5z M353.9,700.5c-2.6-2.9-2.6-5.7-0.1-8.2c1.5-1.5,4.6-2,13.1-2c10.5,0,11.2,0.2,13.2,3.1c1.9,2.9,1.9,3.4,0,6.3
		c-1.9,2.9-2.7,3.1-13.1,3.1C357.9,702.8,355.6,702.4,353.9,700.5L353.9,700.5z M443.6,642.5c-7.3-8.4-19-21.9-26-30L405,597.8
		l-17.8,0l-17.8,0v30v30h43.8H457L443.6,642.5L443.6,642.5z M139.2,854.1c-2-2-3.7-4.9-3.7-6.3s1.6-4.3,3.7-6.3l3.7-3.7h74.6H292
		l3.7,3.7c2,2,3.7,4.9,3.7,6.3s-1.6,4.3-3.7,6.3l-3.7,3.7h-74.6h-74.6L139.2,854.1z M-0.2,677.3c-6.4-2.8-7.5-10.1-2.4-15.2l3.1-3.1
		l75.1,0.3l75.1,0.3l2.4,3c3.2,4,3,8.1-0.6,12.3l-3,3.5l-72.9,0.3C17.4,678.9,3,678.7-0.2,677.3L-0.2,677.3z M-26.3,629.1
		c-6.8-2.8-8.2-11.1-2.6-15.9l3.4-2.9h57.4c40,0,58.3,0.4,60.5,1.4c4.6,2.1,6.7,8,4.4,12.2c-3.6,6.3-3.9,6.4-64.2,6.3
		C1.5,630.2-24.9,629.7-26.3,629.1L-26.3,629.1z M-43.4,575.1c-3.9-1.4-6.7-7.3-5.6-11.7c1.5-5.9,6-6.9,30.1-6.9H3.1v-13.2
		c0-12.3,0.2-13.4,3.1-16.3c3.9-3.9,9.4-4,13-0.2c2.4,2.6,2.7,4.3,2.7,16.3v13.4h104.8c104.2,0,104.9,0,108.1,2.6
		c4.3,3.4,4.6,10.8,0.7,14.4c-2.6,2.3-6.8,2.4-139.1,2.6C10,576.3-41.3,575.9-43.4,575.1z"/>
</g>
</svg>
