<?xml version="1.0" encoding="utf-8"?>
<!-- Generator: Adobe Illustrator 21.0.2, SVG Export Plug-In . SVG Version: 6.00 Build 0)  -->
<svg version="1.1" id="Слой_1" xmlns="http://www.w3.org/2000/svg" xmlns:xlink="http://www.w3.org/1999/xlink" x="0px" y="0px"
	 viewBox="0 0 571.2 525.6" style="enable-background:new 0 0 571.2 525.6;" xml:space="preserve">
<style type="text/css">
	.st0{fill:#3AD861;}
</style>
<title>Ресурс 8</title>
<g id="Слой_2">
	<g id="svg2">
		<path id="path3525" class="st0" d="M115.8,524.2C94.5,516.1,81,496.1,83.3,476l0.8-6.9h-20c-18.5,0-20.3-0.2-23.1-2.5
			c-3.8-3.2-4.3-8.8-1.1-12.5c0.1-0.1,0.2-0.3,0.3-0.4c2.7-2.7,3.1-2.7,33-2.6l20.6,0.1l5.2-4.7c3.7-3.1,7.7-5.7,12-7.9
			c5.8-2.9,8-3.3,17.9-3.3c10,0,12,0.4,18.3,3.5c9.6,4.7,18.7,14,23.4,24c3.3,6.9,3.8,9.3,3.8,17.5s-0.5,10.6-3.8,17.4
			C166,508,158,516.4,148,521.5c-6.7,3.3-9.2,3.9-17.9,4.1C123.8,525.7,118.4,525.2,115.8,524.2z M143.2,504.4
			c3.4-2.1,6.3-4.7,8.6-7.9c2.9-4.2,3.6-6.5,4-13.2c0.8-13.3-3-21.3-12.6-27c-4.7-2.8-6.9-3.3-14.4-3.3c-10.8,0-17.5,3.2-23,11
			c-3.4,4.8-3.6,5.8-3.6,16.1c0,9.9,0.3,11.4,3.3,15.8c5.7,8.5,14,12.4,25.3,11.6C135.2,507.5,139.4,506.3,143.2,504.4L143.2,504.4z
			 M378.5,524.8c-12.5-4.1-25-15.2-30.5-27c-2.7-5.8-3.2-8.4-3.2-17.5s0.5-11.6,3.2-17.5c4.5-9.5,13.8-19,23.3-23.7
			c7.1-3.5,8.7-3.8,19-3.8c10.1,0,12,0.4,17.8,3.4c4.2,2.2,8.1,4.8,11.8,7.8l5.4,4.4l59.7,0.1c32.9,0.1,61.7-0.1,64.2-0.5l4.4-0.7
			v-21.1l-245.4-0.3l-245.4-0.3l-3-2.9l-3-2.9v-96.7l2.9-2.9c3.5-3.5,7.6-3.7,11.7-0.5l3.1,2.5v85h279.2V139.1h-8.8
			c-8.1,0-9-0.3-11.2-3.1c-1.3-1.7-2.2-3.6-2.5-5.8c0.3-2.1,1.1-4.1,2.5-5.8c2.4-3.1,2.6-3.1,17.5-3.1c21.3,0,20.2-1.5,20.2,29.3
			v23.9h21.1c19.6,0,21.5,0.2,26,2.7c3.6,1.9,16.9,16.4,48.6,53.1c38.5,44.5,44.1,50.5,47.8,51.2c12.6,2.4,27.7,14.7,33.7,27.6
			l3.2,6.8l0.6,47l0.6,47l5.3,2.7c3.4,1.9,6.4,4.3,8.9,7.2c3.4,4.3,3.6,5.3,4,16.4c0.5,15.1-0.3,19-4.9,24.3
			c-7.7,8.8-6.1,8.6-72.4,8.6h-59.1v11.5c0,10.4-0.4,12.3-3.5,18.6c-5,9.6-12.8,17.5-22.5,22.5c-5.8,2.8-8.8,3.5-17.1,3.7
			C386,525.7,380.1,525.4,378.5,524.8L378.5,524.8z M405,504.1c3.6-2.2,6.5-5.2,8.7-8.7c2.9-4.9,3.3-6.8,3.3-15
			c0-10.2-2-15.1-8.7-21.4c-4.3-4-14.5-6.8-21.6-6c-15.1,1.8-23.9,11.9-24,27.4c-0.1,12.5,5.9,22,16.5,26
			C386.3,509.1,398.3,508.1,405,504.1L405,504.1z M534.3,384.2c0.3-19.5,0-25.3-1.2-25.7c-0.8-0.3-8.7-2.7-17.4-5.4
			c-18.5-5.7-21-7.7-24.1-18.7c-5.1-18.4-0.5-23.8,20.4-23.8c10.3,0,12.2,0.3,14.3,2.4c1.3,1.3,2.4,3.2,2.4,4.1s-1.1,2.8-2.4,4.1
			c-2,2-3.9,2.4-13.7,2.4c-10.2,0-11.3,0.2-10.7,2.1c0.3,1.1,1.1,4.2,1.8,6.8l1.2,4.8l13.3,4c7.3,2.2,14.1,4.3,15,4.6
			c2.9,1.1,1.2-26.2-2-32.5c-3.1-6-9.4-11.4-15.5-13.3c-3.1-0.9-21.9-1.4-60.4-1.4c-62.3,0-61.3,0.1-67-8.1l-2.9-4.3v-38.2
			c0-46.8-1.8-42.9,19.5-42.9c8.1,0,14.8-0.3,14.8-0.7s-2.2-3.3-4.8-6.5l-4.8-5.8h-38.9V410l81.3-0.3l81.3-0.3L534.3,384.2z
			 M388.6,320.6c-2.5-2.5-2.4-5.6,0.3-8c1.7-1.5,4.5-2,12.4-2c9.6,0,10.4,0.2,12.2,3s1.8,3.2,0,5.9s-2.5,3-12.5,3
			C393,322.5,390,322,388.6,320.6L388.6,320.6z M484.8,278.7c-0.9-1.3-12-14.3-24.7-28.9L437,223.2l-16.9-0.1l-16.9-0.1v58h41.5
			C485.8,281,486.4,281,484.8,278.7L484.8,278.7z M187.3,467.7c-2.6-1.2-5.2-5.6-5.2-8.7c0-0.9,1.2-3.1,2.8-4.9l2.8-3.2h72h72
			l2.7,3.2c1.5,1.7,2.7,3.9,2.7,4.8c0,3.2-2.7,7.4-5.5,8.7C327.7,469.5,190.9,469.4,187.3,467.7L187.3,467.7z M141.5,317.6
			c-54-6.3-103.2-42.2-126.7-92.6C-28.4,132.6,27.3,24.2,129.3,2.2c13.6-2.9,47.2-2.9,60.7,0c31.6,6.8,58.1,21,80.9,43.5
			c50.1,49.2,62.6,123.4,31,184.9C271.4,290,206.6,325.2,141.5,317.6L141.5,317.6z M188.1,297.6c29.7-6.1,54-19.4,74.5-41
			c11.2-11.8,17.5-21,24.9-36.5c20.2-42.3,17.6-95-6.8-135.1C236.6,12.1,136.9-4.9,69.6,49C20.2,88.6,3.9,161.9,31.7,220.1
			c7.4,15.5,13.7,24.7,24.9,36.5c20.3,21.3,44.6,34.8,74,41C145.9,300.8,172.4,300.8,188.1,297.6L188.1,297.6z M170.1,175.2
			c-16.1-10.7-29.8-20.5-30.4-21.8c-0.8-1.5-1.2-21.4-1.2-58V39.6l2.9-2.9c5-5,12.2-3.3,14.8,3.5c0.8,2,1.2,21.7,1.2,54V145
			l26.5,17.7c28.4,19,29.8,20.4,26.2,27.2C205.7,198.1,202.7,197,170.1,175.2L170.1,175.2z"/>
	</g>
</g>
</svg>
