<?xml version="1.0" encoding="utf-8"?>
<!-- Generator: Adobe Illustrator 21.0.2, SVG Export Plug-In . SVG Version: 6.00 Build 0)  -->
<svg version="1.1" id="Слой_1" xmlns="http://www.w3.org/2000/svg" xmlns:xlink="http://www.w3.org/1999/xlink" x="0px" y="0px"
	 viewBox="0 0 478.9 357.9" style="enable-background:new 0 0 478.9 357.9;" xml:space="preserve">
<style type="text/css">
	.st0{fill:#3AD861;}
</style>
<title>Ресурс 5</title>
<g id="Слой_2">
	<g id="svg2">
		<path id="path3460" class="st0" d="M12.9,3.5C7,7.4,1.7,13.6,0,20.5v318.2c4.5,9.7,13.4,19.3,25,18.3
			c77.8,1.4,155.7,0.5,233.5,0.6l170.9-0.2c8.2-4.2,15.5-10.9,18.6-19.5c0.3-23.5,0.5-46.9,0.8-70.4h30V110.1h-30
			c-0.3-30.5-0.5-61-0.8-91.4c-4.1-8.2-10.9-15.5-19.5-18.6H18.6L12.9,3.5z M23.9,15.9h401.1c3.9,3.9,9,7.2,7.2,13.4V110l-192.1,0.7
			c-8.2,4.2-15.5,10.9-18.6,19.6v118c4.2,8.2,10.9,15.5,19.6,18.6l191.2,0.7v66.8c-3.9,3.9-7.2,9-13.4,7.2H23.1
			c-3.9-3.9-9-7.2-7.2-13.4V23.1C18.6,20.9,20.8,17.2,23.9,15.9L23.9,15.9z M245.3,126.6h217.1V251H244.6c-3.9-3.9-9-7.2-7.2-13.4
			V133.8C240,131.6,242.2,127.9,245.3,126.6L245.3,126.6z M277.9,161c-12.6-0.7-24.6,10.2-26.1,22.5c-0.8,8.6,0,17.8,6.4,24.3
			c11.9,14.1,37.6,11.3,46.1-5.2c4.2-7.1,3.4-16.1,1.9-23.9c-4.4-10.9-15.6-19.3-27.6-17.7L277.9,161L277.9,161z M279.4,176.9
			c9-0.2,15.6,11.7,9.4,18.8c-4.3,6.5-14.6,6.4-18.9-0.1C263.8,188.3,270.3,177,279.4,176.9L279.4,176.9z"/>
	</g>
</g>
</svg>
