<?xml version="1.0" encoding="utf-8"?>
<!-- Generator: Adobe Illustrator 21.0.2, SVG Export Plug-In . SVG Version: 6.00 Build 0)  -->
<svg version="1.1" id="Слой_1" xmlns="http://www.w3.org/2000/svg" xmlns:xlink="http://www.w3.org/1999/xlink" x="0px" y="0px"
	 viewBox="0 0 506.3 498.2" style="enable-background:new 0 0 506.3 498.2;" xml:space="preserve">
<style type="text/css">
	.st0{fill:#3AD861;}
</style>
<title>Ресурс 4</title>
<g id="Слой_2">
	<g id="svg2">
		<path id="path3445" class="st0" d="M250.1,0c-51.2,0.4-102,25-134.5,65.3c-22,26.3-35.4,59-40,92.9c-38-2-74.8,30.7-75.5,68.8
			c-2.6,33.7,22.3,65.7,54.5,73.9c11.9,2.1,24,2.2,36.1,2.8c0.7-48.3-0.1-96.7,1.8-145c3.9-35.1,20.5-68.5,45.6-93.3
			c25.4-26.6,60.1-44.3,96.8-47.8c23.7-1.7,48.1-0.8,70.6,7.7c37.6,12.9,69,41,88.9,75c12.9,23.4,20.6,50,19.7,76.8
			c0.2,44.9,0.8,89.9-0.4,134.9c-2,24.8-11.1,48.8-24.3,69.7c-17,25.9-40.9,47.5-68.9,60.9c-4.3,1.6-8-4.8-12-6.3
			c-22.2-13.2-51.5-13.5-74-0.9c-11.1,6.2-20,18.4-17.4,31.6c3.1,16.2,20,25.4,34.9,29.1c21.4,4.8,45.7,2,62.8-12.9
			c6.9-5.8,10-14.4,11.3-23c3.2-6.3,11.6-7,16.8-11.2c51-29.9,85-86,88.3-145.1c17.3-1.7,35.6-5.5,48.5-18
			c21.9-17.9,32.5-49,23.3-76.1c-9.5-30.5-40.6-53.2-72.6-51.6c-5.6-42.3-25.7-82.6-57.3-111.3C339.5,16.1,295.5-0.7,250.1,0z
			 M75.3,176.6v109.8c-24.3,1.7-48.7-14.8-55.9-38.2c-8.3-23.7,1.6-52.2,23.3-65c9.6-6.4,21.3-8.3,32.6-8.8L75.3,176.6L75.3,176.6z
			 M432.8,174.7c25.5-0.5,50,18.1,55.3,43.2c6.7,27.2-10,58.3-37.3,66c-6.5,2-13.3,2.5-20.1,3.1V174.5L432.8,174.7L432.8,174.7z
			 M271.6,441.7c12.6,0.5,26.7,3.5,35.4,13.4c5.8,6.8,0.2,16.1-6.5,19.7c-15.9,9.2-36.2,9.8-53.2,3.3c-7.6-3-17-10.2-14.2-19.5
			c4.2-10,16-13.6,25.7-15.7C263.1,442.1,267.3,441.7,271.6,441.7L271.6,441.7z"/>
	</g>
</g>
</svg>
